<?xml version="1.0" standalone="no"?>
<!DOCTYPE svg PUBLIC "-//W3C//DTD SVG 20010904//EN"
 "http://www.w3.org/TR/2001/REC-SVG-20010904/DTD/svg10.dtd">
<svg version="1.0" xmlns="http://www.w3.org/2000/svg"
 width="240.000000pt" height="240.000000pt" viewBox="0 0 240.000000 240.000000"
 preserveAspectRatio="xMidYMid meet">

<g transform="translate(0.000000,240.000000) scale(0.100000,-0.100000)"
fill="#000000" stroke="none">
<path d="M613 2246 c-63 -30 -62 -28 -294 -431 -94 -165 -200 -347 -234 -405
-71 -122 -85 -157 -85 -214 1 -53 14 -82 155 -326 65 -113 174 -301 242 -419
154 -267 155 -268 217 -297 l51 -24 540 0 c504 0 543 2 580 19 22 10 52 31 67
47 22 25 473 795 529 906 13 25 19 58 19 100 0 73 16 42 -314 613 -114 198
-220 373 -234 389 -15 16 -45 37 -67 47 -37 17 -76 19 -580 19 l-540 0 -52
-24z m197 -1051 l0 -395 -55 0 -55 0 0 395 0 395 55 0 55 0 0 -395z m228 3
l-3 -393 -57 -3 -58 -3 0 396 0 395 60 0 60 0 -2 -392z m220 0 l-3 -393 -55 0
-55 0 -3 393 -2 392 60 0 60 0 -2 -392z m222 -3 l0 -395 -55 0 -55 0 0 395 0
395 55 0 55 0 0 -395z m228 3 l-3 -393 -57 -3 -58 -3 0 396 0 395 60 0 60 0
-2 -392z"/>
</g>
</svg>
