<?xml version="1.0" standalone="no"?>
<!DOCTYPE svg PUBLIC "-//W3C//DTD SVG 20010904//EN"
 "http://www.w3.org/TR/2001/REC-SVG-20010904/DTD/svg10.dtd">
<svg version="1.0" xmlns="http://www.w3.org/2000/svg"
 width="1000.000000pt" height="898.000000pt" viewBox="0 0 1000.000000 898.000000"
 preserveAspectRatio="xMidYMid meet">

<g transform="translate(0.000000,898.000000) scale(0.100000,-0.100000)"
fill="#000000" stroke="none">
<path d="M2950 8650 c-137 -18 -309 -97 -419 -193 -122 -107 -85 -49 -618
-972 -165 -286 -494 -855 -730 -1265 -237 -410 -465 -803 -506 -875 -41 -71
-116 -202 -167 -290 -115 -199 -144 -259 -169 -357 -48 -186 -32 -396 41 -548
10 -21 340 -603 369 -650 5 -8 48 -82 95 -165 123 -213 303 -524 364 -630 28
-49 106 -184 172 -300 66 -115 142 -246 168 -290 106 -180 334 -573 365 -630
26 -47 60 -107 328 -570 60 -104 129 -217 152 -250 134 -187 346 -316 565
-345 46 -6 832 -10 2051 -10 1710 0 1988 2 2062 15 181 32 315 102 448 234 70
70 102 113 171 231 75 129 657 1136 951 1645 60 105 142 246 182 315 40 69
126 217 190 330 148 258 472 819 534 925 85 145 111 215 136 359 19 111 19
141 0 252 -29 173 -7 131 -638 1219 -80 138 -273 473 -357 620 -32 55 -214
370 -405 700 -191 330 -392 679 -448 775 -193 335 -230 393 -300 467 -106 111
-224 183 -387 237 l-65 21 -2040 1 c-1122 1 -2065 -2 -2095 -6z m2245 -1881
c137 -57 253 -189 291 -333 18 -65 18 -187 0 -252 -33 -124 -135 -255 -243
-311 l-53 -28 0 -280 0 -280 -185 0 -185 0 0 280 -1 280 -52 25 c-68 33 -164
130 -205 208 -129 243 -28 554 219 676 94 46 143 56 250 51 69 -3 103 -10 164
-36z m-1605 -1016 c158 -75 256 -259 222 -419 -46 -219 -235 -356 -447 -322
-133 20 -232 94 -292 216 -36 72 -38 81 -38 172 0 88 3 102 32 161 76 153 206
232 373 226 71 -2 96 -8 150 -34z m3161 -1 c116 -56 196 -165 220 -301 32
-177 -95 -377 -271 -428 -338 -98 -624 248 -462 562 28 54 101 129 153 156 85
43 111 49 204 46 77 -3 99 -8 156 -35z m-1616 -647 c317 -66 536 -372 496
-693 -44 -361 -379 -612 -733 -549 -237 42 -423 207 -504 447 -29 86 -26 273
5 365 53 155 149 276 282 357 55 34 155 71 219 81 57 10 170 6 235 -8z m-895
-880 c0 -25 90 -191 130 -239 22 -27 38 -52 35 -55 -4 -3 -113 -67 -243 -142
l-237 -136 -6 -99 c-4 -54 -14 -119 -23 -144 -76 -203 -256 -330 -471 -330
-200 0 -365 106 -454 290 -36 74 -36 76 -36 205 0 130 0 130 37 208 87 182
253 287 453 287 103 0 177 -20 259 -71 27 -16 54 -28 60 -25 6 2 117 65 246
139 129 74 238 133 243 130 4 -2 7 -10 7 -18z m1796 -124 c253 -146 233 -138
278 -107 107 72 284 97 413 57 85 -26 179 -87 232 -150 275 -328 51 -821 -373
-821 -197 0 -362 101 -446 274 -43 87 -66 194 -55 257 l6 36 -238 137 c-131
76 -242 142 -247 147 -6 5 0 19 16 36 53 58 117 171 151 266 7 18 8 18 39 -1
18 -11 119 -70 224 -131z m-943 -1056 c82 -21 133 -50 189 -106 88 -88 131
-219 109 -336 -47 -255 -292 -393 -537 -302 -44 17 -75 38 -125 88 -87 87
-112 149 -113 276 -1 81 2 97 31 157 55 117 141 189 264 222 70 19 112 19 182
1z"/>
</g>
</svg>
