<?xml version="1.0" standalone="no"?>
<!DOCTYPE svg PUBLIC "-//W3C//DTD SVG 20010904//EN"
 "http://www.w3.org/TR/2001/REC-SVG-20010904/DTD/svg10.dtd">
<svg version="1.0" xmlns="http://www.w3.org/2000/svg"
 width="4000.000000pt" height="3594.000000pt" viewBox="0 0 4000.000000 3594.000000"
 preserveAspectRatio="xMidYMid meet">
<metadata>
Created by potrace 1.16, written by Peter Selinger 2001-2019
</metadata>
<g transform="translate(0.000000,3594.000000) scale(0.100000,-0.100000)"
fill="#000000" stroke="none">
<path d="M13295 32329 c-398 -25 -744 -119 -1114 -301 -427 -211 -857 -593
-1106 -983 -124 -194 -6727 -11647 -6786 -11770 -132 -276 -218 -574 -261
-905 -15 -122 -15 -558 1 -670 53 -372 137 -653 281 -940 32 -63 1006 -1773
2165 -3800 1160 -2027 2645 -4624 3300 -5771 656 -1147 1230 -2143 1275 -2215
45 -71 121 -181 168 -244 96 -129 340 -379 472 -484 394 -312 859 -523 1355
-613 l150 -28 6760 -2 c6701 -3 6761 -3 6910 17 313 41 634 139 908 276 315
158 527 312 783 568 177 178 316 359 451 586 50 85 1236 2146 2636 4580 1399
2434 2869 4990 3267 5680 397 690 755 1323 796 1405 302 624 372 1348 194
2020 -55 208 -141 433 -229 600 -36 68 -5223 9092 -6461 11240 -253 440 -274
474 -384 620 -105 141 -340 384 -479 496 -231 187 -526 357 -798 459 -148 56
-439 132 -589 154 -58 9 -181 20 -275 26 -207 12 -13193 11 -13390 -1z m6915
-6882 c55 -18 463 -249 1475 -834 770 -445 2120 -1225 3000 -1734 880 -508
1626 -945 1658 -971 75 -59 141 -144 183 -233 70 -146 64 185 61 -3736 l-2
-3544 -27 -65 c-55 -137 -124 -230 -238 -321 -25 -20 -382 -231 -795 -469
-412 -238 -1425 -823 -2250 -1300 -1361 -787 -1704 -985 -2285 -1320 -102 -58
-291 -168 -422 -243 -342 -197 -393 -217 -568 -217 -164 0 -227 22 -465 160
-82 48 -267 155 -410 237 -143 83 -377 218 -520 300 -227 132 -1996 1155
-4190 2423 -374 216 -693 403 -710 414 -128 88 -230 237 -274 402 l-21 81 2
3519 3 3519 29 75 c16 41 39 95 52 120 31 60 121 163 181 209 27 20 764 450
1638 956 875 505 2220 1283 2990 1729 770 445 1423 818 1450 829 138 55 319
60 455 14z"/>
<path d="M17108 22578 l-2548 -1471 0 -2943 c0 -1619 3 -2944 8 -2944 4 0 466
265 1027 589 l1020 588 3 1568 c2 1247 5 1566 15 1562 6 -3 694 -396 1527
-875 l1515 -869 3 -1763 c2 -1547 0 -1761 -13 -1757 -8 4 -279 159 -602 345
-323 187 -662 382 -753 434 -91 52 -428 247 -750 434 -322 186 -594 338 -605
338 -11 0 -294 -159 -630 -354 -335 -194 -720 -417 -855 -495 -513 -296 -570
-329 -562 -336 4 -4 1152 -667 2552 -1474 2474 -1426 2545 -1466 2570 -1452
1917 1104 5067 2921 5072 2926 8 7 -49 40 -562 336 -135 78 -519 301 -855 495
-335 195 -619 354 -630 354 -11 0 -283 -152 -605 -338 -322 -187 -659 -382
-750 -434 -91 -52 -430 -247 -753 -434 -323 -186 -594 -341 -602 -345 -13 -4
-15 210 -13 1762 l3 1768 1515 869 c833 478 1520 870 1525 871 7 1 12 -529 15
-1567 l5 -1569 995 -574 c547 -316 1007 -581 1023 -589 l27 -15 0 2948 -1
2948 -2541 1465 c-1397 806 -2545 1467 -2549 1468 -5 2 -9 -529 -9 -1180 l0
-1184 338 -195 c1985 -1149 2372 -1375 2369 -1384 -2 -5 -134 -85 -293 -176
-268 -153 -1643 -942 -2407 -1381 -181 -103 -335 -188 -342 -188 -7 0 -195
104 -417 232 -654 375 -1999 1146 -2330 1336 -169 97 -304 179 -300 184 6 6
849 495 2325 1348 l387 224 0 1183 c0 651 -3 1183 -7 1182 -5 0 -1154 -663
-2555 -1471z"/>
</g>
</svg>
