<?xml version="1.0" standalone="no"?>
<!DOCTYPE svg PUBLIC "-//W3C//DTD SVG 20010904//EN"
 "http://www.w3.org/TR/2001/REC-SVG-20010904/DTD/svg10.dtd">
<svg version="1.0" xmlns="http://www.w3.org/2000/svg"
 width="212.000000pt" height="238.000000pt" viewBox="0 0 212.000000 238.000000"
 preserveAspectRatio="xMidYMid meet">

<g transform="translate(0.000000,238.000000) scale(0.100000,-0.100000)"
fill="#000000" stroke="none">
<path d="M960 2314 c-58 -25 -799 -457 -835 -487 -19 -15 -46 -53 -62 -85
l-28 -57 0 -495 0 -495 23 -51 c13 -28 38 -65 55 -82 31 -29 757 -455 841
-493 51 -23 152 -25 203 -4 20 8 210 115 422 237 430 247 468 275 496 372 14
47 16 120 13 538 -3 480 -3 483 -26 529 -12 25 -37 60 -55 77 -30 29 -756 454
-842 493 -50 23 -156 24 -205 3z m-345 -1092 l0 -392 445 0 445 0 0 392 0 393
93 3 92 3 0 -36 0 -35 -60 0 -60 0 0 -395 0 -395 -510 0 -510 0 0 395 0 395
-60 0 -60 0 0 35 0 36 93 -3 92 -3 0 -393z m833 97 c-2 -16 -53 -51 -195 -135
l-193 -113 -192 113 c-143 84 -194 119 -196 135 l-3 21 391 0 391 0 -3 -21z
m-580 -179 c110 -65 193 -108 202 -105 8 4 95 53 192 111 97 57 179 104 182
104 3 0 6 -83 6 -185 l0 -185 -390 0 -390 0 0 185 c0 102 2 185 5 185 3 0 90
-50 193 -110z"/>
</g>
</svg>
