<?xml version="1.0" standalone="no"?>
<!DOCTYPE svg PUBLIC "-//W3C//DTD SVG 20010904//EN"
 "http://www.w3.org/TR/2001/REC-SVG-20010904/DTD/svg10.dtd">
<svg version="1.0" xmlns="http://www.w3.org/2000/svg"
 width="600.000000pt" height="520.000000pt" viewBox="0 0 600.000000 520.000000"
 preserveAspectRatio="xMidYMid meet">

<g transform="translate(0.000000,520.000000) scale(0.100000,-0.100000)"
fill="#000000" stroke="none">
<path d="M1943 4723 l-191 -3 -631 -1080 -630 -1079 495 -858 c273 -472 555
-960 627 -1085 l132 -228 875 0 c481 0 1047 3 1257 7 l383 6 629 1079 630
1079 -632 1085 -632 1084 -1060 -2 c-583 -2 -1146 -4 -1252 -5z m195 -1700 l2
-763 858 0 857 0 -3 765 -2 765 180 0 180 0 0 -60 0 -60 -115 0 -115 0 0 -770
0 -770 -982 2 -983 3 -3 763 -2 762 -54 0 c-29 0 -81 3 -115 6 l-61 7 0 59 0
58 178 -2 177 -3 3 -762z m1602 155 c0 -33 -4 -35 -369 -250 l-370 -217 -378
212 -378 212 -3 38 -3 37 750 0 751 0 0 -32z m0 -453 l0 -355 -750 0 -750 0 0
350 c0 224 4 350 10 350 5 0 174 -92 375 -205 201 -113 371 -205 378 -205 7 0
172 95 367 210 195 115 358 210 363 210 4 0 7 -160 7 -355z m388 -1164 c44
-23 93 -72 118 -121 14 -26 19 -57 19 -125 0 -80 -3 -97 -28 -144 l-28 -54 30
-26 30 -26 -28 -32 -27 -33 -40 33 c-37 32 -41 33 -69 21 -38 -16 -126 -18
-176 -2 -51 15 -114 70 -140 120 -61 120 -30 290 66 364 73 56 192 67 273 25z
m-2330 -248 l2 -263 -30 0 -30 0 0 266 0 265 28 -3 27 -3 3 -262z m374 256
c111 -24 150 -132 76 -211 -21 -22 -26 -34 -17 -37 25 -8 57 -49 67 -84 22
-78 -24 -154 -106 -177 -20 -5 -97 -10 -169 -10 l-133 0 0 258 c0 142 3 262 7
265 11 11 218 8 275 -4z m366 -212 c47 -119 89 -214 92 -210 5 6 92 224 166
417 4 11 18 16 45 16 l39 0 0 -265 0 -265 -30 0 -30 0 -1 208 0 207 -82 -205
c-80 -200 -83 -205 -111 -205 -28 0 -30 5 -112 210 l-84 210 0 -212 0 -213
-30 0 -30 0 0 266 0 265 41 -3 42 -3 85 -218z m827 48 l60 -171 49 156 c28 85
54 163 58 173 7 14 22 17 88 17 l80 0 0 -265 0 -265 -55 0 -55 0 -1 168 c-1
191 4 192 -74 -30 l-47 -138 -48 0 -47 0 -53 153 c-29 83 -55 157 -59 164 -3
6 -6 -61 -6 -150 l0 -162 -57 -3 -58 -3 0 266 0 266 83 -3 82 -3 60 -170z"/>
<path d="M3944 1461 c-45 -27 -68 -93 -61 -171 8 -93 43 -133 127 -146 l45 -7
-24 27 -24 26 24 28 c13 15 25 29 27 31 1 3 15 -8 31 -23 l29 -28 13 23 c19
35 16 147 -4 186 -38 71 -117 94 -183 54z"/>
<path d="M1950 1435 l0 -85 103 0 c84 0 108 4 135 20 28 17 32 25 32 64 0 36
-5 48 -26 65 -23 18 -41 21 -135 21 l-109 0 0 -85z"/>
<path d="M1950 1200 l0 -102 114 3 c97 4 119 7 143 25 25 19 28 28 28 74 0 46
-3 55 -28 74 -24 18 -46 21 -143 25 l-114 3 0 -102z"/>
</g>
</svg>
