<svg id="svg" version="1.1" xmlns="http://www.w3.org/2000/svg" xmlns:xlink="http://www.w3.org/1999/xlink" width="400" height="420.5607476635514" viewBox="0, 0, 400,420.5607476635514"><g id="svgg"><path id="path0" d="M28.400 78.138 C 28.400 136.062,28.439 139.509,29.100 140.071 C 29.485 140.398,30.790 141.166,32.000 141.778 C 33.210 142.389,34.470 143.114,34.800 143.388 C 35.130 143.662,36.660 144.565,38.200 145.393 C 39.740 146.222,41.196 147.055,41.436 147.246 C 41.676 147.436,42.936 148.152,44.236 148.837 C 45.536 149.521,47.482 150.639,48.559 151.321 C 49.637 152.002,51.028 152.839,51.651 153.180 C 52.274 153.521,54.182 154.610,55.892 155.600 C 57.601 156.590,59.180 157.467,59.400 157.550 C 59.620 157.632,60.734 158.309,61.875 159.055 C 63.017 159.800,65.087 160.981,66.475 161.680 C 67.864 162.378,69.656 163.456,70.458 164.075 C 71.259 164.694,72.159 165.213,72.458 165.228 C 72.756 165.244,74.080 165.958,75.400 166.815 C 76.720 167.672,78.728 168.819,79.862 169.364 C 80.997 169.909,82.031 170.526,82.160 170.736 C 82.290 170.946,83.162 171.516,84.098 172.003 C 87.249 173.644,90.196 175.299,90.800 175.769 C 91.130 176.025,91.940 176.493,92.600 176.809 C 93.260 177.125,94.340 177.775,95.000 178.253 C 95.660 178.730,96.830 179.412,97.600 179.768 C 98.370 180.124,99.900 180.943,101.000 181.588 C 104.092 183.403,106.404 184.716,108.737 185.983 C 109.913 186.621,111.173 187.392,111.537 187.696 C 111.902 188.000,113.370 188.849,114.800 189.583 C 116.230 190.318,118.174 191.432,119.120 192.059 C 120.066 192.687,121.002 193.200,121.200 193.200 C 121.398 193.200,122.334 193.719,123.280 194.354 C 124.226 194.989,126.440 196.314,128.200 197.299 C 129.960 198.284,132.255 199.580,133.300 200.179 L 135.200 201.268 135.200 139.498 L 135.200 77.728 134.100 77.232 C 133.495 76.958,132.069 76.119,130.932 75.367 C 129.795 74.615,128.685 74.000,128.466 74.000 C 128.246 74.000,128.007 73.865,127.933 73.700 C 127.860 73.535,126.949 72.984,125.909 72.476 C 124.869 71.969,123.917 71.389,123.792 71.188 C 123.668 70.987,122.722 70.449,121.688 69.992 C 120.655 69.535,119.445 68.818,119.000 68.400 C 118.554 67.981,117.562 67.347,116.795 66.991 C 114.730 66.034,113.191 65.194,111.400 64.046 C 109.563 62.869,109.105 62.610,105.727 60.842 C 104.367 60.130,103.040 59.289,102.778 58.974 C 102.516 58.658,102.099 58.397,101.851 58.392 C 101.603 58.388,100.500 57.815,99.400 57.120 C 98.300 56.424,96.230 55.242,94.800 54.494 C 93.370 53.745,91.930 52.901,91.600 52.618 C 91.017 52.118,89.794 51.418,84.400 48.495 C 82.970 47.721,81.530 46.882,81.200 46.631 C 80.870 46.380,79.790 45.744,78.800 45.217 C 77.810 44.691,76.910 44.134,76.800 43.980 C 76.690 43.827,75.089 42.913,73.242 41.950 C 71.395 40.988,69.592 40.020,69.234 39.800 C 63.957 36.554,57.633 32.902,55.200 31.695 C 54.430 31.313,53.710 30.889,53.600 30.754 C 53.490 30.618,52.590 30.102,51.600 29.607 C 50.610 29.112,49.530 28.478,49.200 28.197 C 48.870 27.917,47.160 26.923,45.400 25.988 C 42.610 24.506,41.369 23.780,37.396 21.304 C 36.958 21.031,35.703 20.331,34.606 19.749 C 33.509 19.167,31.937 18.265,31.114 17.745 C 28.136 15.866,28.400 9.993,28.400 78.138 M371.991 87.044 C 370.786 87.838,368.570 89.108,367.066 89.866 C 365.562 90.624,363.600 91.774,362.706 92.422 C 361.812 93.070,360.942 93.600,360.773 93.600 C 360.604 93.600,359.146 94.377,357.533 95.326 C 355.920 96.275,354.330 97.182,354.000 97.342 C 353.347 97.657,352.641 98.082,350.200 99.632 C 349.320 100.191,347.520 101.202,346.200 101.881 C 344.880 102.559,342.814 103.763,341.609 104.557 C 340.404 105.351,339.204 106.000,338.942 106.000 C 338.681 106.000,338.407 106.143,338.333 106.319 C 338.216 106.599,335.724 108.055,331.200 110.485 C 330.430 110.899,328.630 111.953,327.200 112.828 C 325.770 113.703,324.027 114.681,323.327 115.003 C 322.627 115.325,321.945 115.765,321.811 115.983 C 321.677 116.200,320.726 116.749,319.698 117.204 C 318.670 117.659,317.553 118.272,317.215 118.567 C 316.877 118.862,315.340 119.782,313.800 120.611 C 312.260 121.440,310.199 122.649,309.220 123.299 C 308.242 123.949,307.030 124.636,306.528 124.827 C 306.027 125.018,303.818 126.260,301.621 127.587 C 299.424 128.914,297.500 130.000,297.345 130.000 C 297.190 130.000,296.779 130.245,296.431 130.544 C 296.084 130.843,294.810 131.628,293.600 132.287 C 290.709 133.863,281.448 139.209,280.076 140.094 C 279.484 140.476,278.604 140.963,278.119 141.177 C 277.635 141.391,276.555 141.996,275.719 142.522 C 274.884 143.049,272.911 144.145,271.335 144.960 C 269.759 145.774,268.364 146.716,268.235 147.053 C 267.768 148.270,267.972 270.400,268.441 270.400 C 268.996 270.400,276.015 266.767,276.699 266.126 C 277.187 265.669,282.590 262.575,286.865 260.304 C 288.000 259.700,289.215 258.954,289.565 258.645 C 289.914 258.336,291.507 257.421,293.104 256.612 C 294.701 255.803,296.527 254.705,297.162 254.171 C 297.796 253.637,298.479 253.200,298.679 253.200 C 298.879 253.200,300.870 252.120,303.102 250.800 C 305.335 249.480,307.275 248.400,307.413 248.400 C 307.551 248.400,308.595 247.812,309.732 247.094 C 310.869 246.376,312.160 245.595,312.600 245.358 C 315.196 243.962,317.186 242.793,318.556 241.860 C 319.412 241.277,320.252 240.800,320.424 240.800 C 320.596 240.800,322.153 239.922,323.884 238.848 C 325.615 237.774,328.014 236.391,329.216 235.774 C 330.417 235.158,332.152 234.146,333.072 233.526 C 333.992 232.907,334.867 232.400,335.017 232.400 C 335.166 232.400,336.754 231.520,338.544 230.445 C 340.335 229.370,342.747 228.000,343.903 227.402 C 345.060 226.803,346.099 226.163,346.212 225.980 C 346.326 225.797,347.269 225.239,348.309 224.740 C 349.349 224.242,350.470 223.623,350.800 223.366 C 351.130 223.108,352.660 222.225,354.200 221.402 C 355.740 220.579,357.900 219.325,359.000 218.615 C 360.100 217.904,362.852 216.302,365.116 215.055 C 371.041 211.790,370.938 211.850,371.668 211.267 C 372.036 210.973,372.936 210.412,373.668 210.019 L 375.000 209.305 375.101 147.453 C 375.183 97.513,375.104 85.600,374.692 85.600 C 374.411 85.600,373.196 86.250,371.991 87.044 M148.000 147.538 C 148.000 213.505,147.899 210.000,149.806 210.000 C 149.994 210.000,150.520 210.341,150.974 210.758 C 151.428 211.174,153.175 212.255,154.855 213.160 C 158.392 215.064,161.461 216.845,165.388 219.275 C 166.921 220.224,169.199 221.488,170.449 222.084 C 171.700 222.681,172.785 223.311,172.861 223.484 C 172.938 223.658,173.810 224.211,174.800 224.713 C 176.799 225.727,180.688 227.942,187.600 232.002 C 190.130 233.488,193.190 235.237,194.400 235.887 C 198.125 237.890,201.793 240.120,201.933 240.469 C 202.007 240.651,202.304 240.800,202.593 240.800 C 202.883 240.800,203.996 241.385,205.067 242.100 C 206.138 242.815,208.092 243.926,209.407 244.569 C 210.723 245.212,212.610 246.296,213.600 246.977 C 214.590 247.658,216.570 248.823,218.000 249.565 C 219.430 250.306,220.870 251.128,221.200 251.390 C 221.530 251.652,222.520 252.190,223.400 252.586 C 224.280 252.981,225.246 253.507,225.547 253.753 C 226.209 254.294,232.946 258.312,236.000 259.986 C 237.210 260.649,239.100 261.738,240.200 262.404 C 241.300 263.071,243.135 264.063,244.277 264.609 C 245.420 265.156,246.454 265.763,246.575 265.960 C 246.697 266.156,247.472 266.672,248.298 267.105 C 249.124 267.538,250.846 268.460,252.125 269.154 C 253.403 269.849,254.618 270.312,254.825 270.185 C 255.056 270.042,255.200 246.486,255.200 208.846 L 255.200 147.739 254.300 146.936 C 253.805 146.494,252.770 145.827,252.000 145.455 C 251.230 145.083,250.330 144.612,250.000 144.408 C 247.203 142.687,240.922 139.082,238.261 137.671 C 236.468 136.720,234.730 135.707,234.400 135.419 C 234.070 135.130,232.720 134.321,231.400 133.620 C 230.080 132.919,228.460 132.006,227.800 131.592 C 225.760 130.311,224.633 129.657,223.793 129.266 C 222.906 128.853,216.329 125.043,213.800 123.476 C 212.920 122.931,210.761 121.735,209.003 120.819 C 207.244 119.902,205.660 118.893,205.483 118.576 C 205.305 118.259,204.896 118.000,204.572 118.000 C 204.249 118.000,203.223 117.506,202.292 116.901 C 200.395 115.669,198.760 114.733,195.574 113.054 C 194.378 112.424,193.130 111.679,192.800 111.398 C 192.470 111.118,190.760 110.123,189.000 109.188 C 187.240 108.254,184.869 106.884,183.732 106.144 C 182.595 105.405,181.494 104.800,181.286 104.800 C 181.078 104.800,180.479 104.469,179.954 104.065 C 179.429 103.662,177.740 102.657,176.200 101.834 C 174.660 101.010,172.827 99.901,172.127 99.368 C 171.426 98.836,170.697 98.400,170.505 98.400 C 170.314 98.400,168.330 97.320,166.098 96.000 C 163.865 94.680,161.927 93.600,161.791 93.600 C 161.655 93.600,160.702 93.017,159.672 92.305 C 158.642 91.593,156.270 90.229,154.400 89.273 C 152.530 88.317,150.716 87.280,150.369 86.967 C 150.021 86.655,149.346 86.400,148.869 86.400 L 148.000 86.400 148.000 147.538 M148.267 224.667 C 148.120 224.813,148.000 252.441,148.000 286.062 L 148.000 347.190 149.700 348.255 C 150.635 348.840,151.460 349.473,151.533 349.660 C 151.607 349.847,151.919 350.000,152.227 350.000 C 152.536 350.000,153.666 350.540,154.738 351.200 C 155.811 351.860,156.821 352.400,156.982 352.400 C 157.144 352.400,157.754 352.739,158.338 353.153 C 159.457 353.947,165.350 357.375,169.400 359.588 C 170.720 360.309,172.160 361.200,172.600 361.568 C 173.040 361.936,173.940 362.488,174.600 362.795 C 176.056 363.474,182.860 367.365,184.800 368.629 C 185.570 369.131,186.875 369.858,187.700 370.245 C 188.525 370.632,189.200 371.095,189.200 371.274 C 189.200 371.453,189.447 371.600,189.750 371.600 C 190.221 371.600,192.279 372.668,194.400 374.013 C 194.925 374.345,199.776 377.164,206.425 381.000 C 207.569 381.660,209.336 382.650,210.352 383.200 C 211.980 384.081,213.389 384.920,216.215 386.692 C 216.647 386.963,217.928 387.628,219.062 388.169 C 220.197 388.711,221.236 389.335,221.373 389.556 C 221.605 389.932,226.752 392.905,231.219 395.244 C 232.317 395.819,233.526 396.558,233.907 396.886 C 234.288 397.214,235.140 397.759,235.800 398.097 C 239.699 400.093,242.400 401.701,242.400 402.027 C 242.400 402.232,242.655 402.400,242.967 402.400 C 243.279 402.400,244.904 403.210,246.578 404.200 C 248.253 405.190,249.776 406.000,249.963 406.000 C 250.149 406.000,250.526 406.270,250.800 406.600 C 251.074 406.930,251.563 407.200,251.886 407.200 C 252.209 407.200,252.938 407.565,253.506 408.012 C 254.306 408.641,254.611 408.709,254.863 408.312 C 255.345 407.553,255.289 286.514,254.807 285.613 C 254.591 285.209,253.556 284.468,252.507 283.967 C 251.458 283.466,249.880 282.597,249.000 282.036 C 246.433 280.400,245.852 280.058,244.919 279.634 C 244.435 279.415,243.265 278.743,242.319 278.142 C 241.374 277.541,239.399 276.408,237.930 275.625 C 235.647 274.406,229.521 270.818,227.600 269.573 C 227.270 269.359,225.950 268.662,224.668 268.025 C 223.385 267.387,222.035 266.597,221.668 266.269 C 221.300 265.941,220.190 265.240,219.200 264.712 C 216.852 263.459,215.802 262.861,213.500 261.467 C 211.250 260.105,208.703 258.697,206.900 257.821 C 206.185 257.474,205.600 257.031,205.600 256.838 C 205.600 256.645,205.116 256.365,204.524 256.217 C 203.599 255.985,201.430 254.706,200.798 254.019 C 200.687 253.899,199.067 253.011,197.198 252.046 C 195.329 251.081,193.488 250.021,193.107 249.691 C 192.726 249.360,191.519 248.619,190.425 248.044 C 185.576 245.499,179.994 242.313,179.782 241.971 C 179.655 241.766,178.797 241.235,177.876 240.792 C 176.954 240.349,175.930 239.822,175.600 239.621 C 172.786 237.913,168.728 235.600,168.544 235.600 C 168.419 235.600,167.507 235.054,166.518 234.386 C 165.528 233.719,163.792 232.706,162.660 232.135 C 161.527 231.564,160.095 230.741,159.478 230.306 C 158.861 229.870,157.241 228.966,155.878 228.297 C 154.515 227.628,152.545 226.477,151.499 225.740 C 149.626 224.420,148.791 224.142,148.267 224.667 " stroke="none" fill="#5c3bd7" fill-rule="evenodd"></path><path id="path1" d="M0.000 210.200 L 0.000 420.400 200.000 420.400 L 400.000 420.400 400.000 210.200 L 400.000 0.000 200.000 0.000 L 0.000 0.000 0.000 210.200 M31.600 16.601 C 31.930 16.878,33.550 17.825,35.200 18.705 C 36.850 19.585,39.730 21.226,41.600 22.352 C 43.470 23.478,45.142 24.400,45.316 24.400 C 45.489 24.400,46.567 25.030,47.710 25.800 C 48.854 26.570,49.931 27.200,50.104 27.200 C 50.278 27.200,51.318 27.818,52.417 28.574 C 53.516 29.330,55.356 30.421,56.507 31.000 C 58.708 32.105,58.917 32.224,62.298 34.300 C 63.463 35.015,64.506 35.600,64.616 35.600 C 64.726 35.600,65.577 36.095,66.508 36.700 C 68.319 37.877,71.155 39.452,73.883 40.794 C 74.809 41.250,75.665 41.782,75.786 41.977 C 75.906 42.171,76.858 42.734,77.902 43.226 C 78.946 43.718,80.160 44.435,80.600 44.818 C 81.040 45.202,82.935 46.300,84.811 47.259 C 86.687 48.218,88.487 49.240,88.811 49.531 C 89.135 49.821,90.324 50.541,91.454 51.130 C 94.608 52.773,98.719 55.162,101.679 57.072 C 103.152 58.022,104.553 58.800,104.793 58.800 C 105.199 58.800,107.153 59.913,107.600 60.399 C 107.710 60.518,108.250 60.836,108.800 61.105 C 109.350 61.374,110.070 61.767,110.400 61.978 C 112.588 63.379,119.286 67.200,119.554 67.200 C 119.733 67.200,120.582 67.709,121.441 68.331 C 122.971 69.439,123.992 70.030,126.800 71.434 C 127.570 71.819,128.470 72.347,128.800 72.608 C 129.130 72.868,130.210 73.511,131.200 74.037 C 133.352 75.180,135.617 76.736,136.283 77.530 C 136.847 78.203,137.026 199.322,136.466 201.400 C 136.070 202.869,135.018 203.140,133.864 202.072 C 133.389 201.632,132.153 200.851,131.118 200.336 C 130.082 199.821,127.609 198.455,125.621 197.300 C 123.633 196.145,121.847 195.200,121.652 195.200 C 121.457 195.200,121.080 194.938,120.814 194.617 C 120.548 194.296,118.591 193.106,116.465 191.971 C 114.339 190.837,112.510 189.774,112.400 189.608 C 112.290 189.443,111.390 188.900,110.400 188.401 C 109.410 187.903,108.099 187.143,107.487 186.712 C 106.876 186.280,105.256 185.343,103.887 184.629 C 100.877 183.058,95.170 179.829,93.068 178.509 C 92.225 177.979,90.155 176.822,88.468 175.936 C 86.781 175.051,85.123 174.080,84.785 173.778 C 84.447 173.477,83.367 172.854,82.385 172.393 C 81.403 171.932,79.880 171.033,79.000 170.394 C 78.120 169.755,76.241 168.673,74.824 167.989 C 73.407 167.304,72.057 166.500,71.824 166.200 C 71.591 165.901,69.736 164.818,67.702 163.793 C 65.668 162.768,63.905 161.771,63.785 161.576 C 63.665 161.382,62.726 160.851,61.697 160.396 C 60.669 159.941,59.732 159.420,59.614 159.237 C 59.417 158.931,57.229 157.693,53.646 155.860 C 52.851 155.453,51.840 154.797,51.400 154.403 C 50.960 154.009,49.790 153.299,48.800 152.825 C 47.810 152.350,45.311 150.981,43.246 149.781 C 41.182 148.582,39.359 147.600,39.195 147.600 C 39.032 147.600,38.683 147.341,38.420 147.024 C 38.157 146.707,36.740 145.828,35.271 145.071 C 31.798 143.282,30.947 142.803,28.900 141.485 L 27.200 140.390 27.200 77.824 C 27.200 18.565,27.237 15.250,27.900 15.100 C 28.624 14.936,30.549 15.717,31.600 16.601 M151.655 86.268 C 153.055 87.080,155.055 88.168,156.100 88.687 C 157.145 89.206,158.000 89.804,158.000 90.016 C 158.000 90.227,158.333 90.400,158.740 90.400 C 159.147 90.400,160.264 90.968,161.222 91.662 C 162.180 92.356,164.419 93.673,166.198 94.588 C 167.976 95.503,169.964 96.622,170.616 97.075 C 172.238 98.204,180.271 102.800,180.621 102.800 C 180.777 102.800,181.736 103.386,182.752 104.103 C 183.769 104.820,185.590 105.929,186.800 106.568 C 188.010 107.208,189.720 108.196,190.600 108.765 C 191.480 109.334,192.920 110.151,193.800 110.580 C 194.680 111.009,195.670 111.581,196.000 111.850 C 196.330 112.120,197.884 113.029,199.452 113.870 C 202.093 115.287,211.328 120.622,214.730 122.696 C 215.539 123.189,218.056 124.629,220.324 125.896 C 222.593 127.163,225.293 128.696,226.324 129.302 C 227.356 129.908,228.470 130.525,228.800 130.673 C 229.130 130.821,230.120 131.405,231.000 131.971 C 231.880 132.537,233.435 133.450,234.455 134.000 C 237.336 135.553,240.918 137.555,241.796 138.103 C 242.234 138.376,243.494 139.163,244.596 139.851 C 245.698 140.539,248.027 141.845,249.771 142.753 C 251.515 143.661,253.225 144.652,253.571 144.955 C 253.917 145.258,254.605 145.629,255.100 145.780 L 256.000 146.054 256.000 208.840 C 256.000 263.306,255.923 271.655,255.420 271.848 C 254.844 272.069,249.766 269.792,249.356 269.129 C 249.238 268.938,248.120 268.265,246.871 267.634 C 245.622 267.002,243.700 265.881,242.600 265.143 C 241.500 264.404,239.790 263.446,238.800 263.013 C 237.810 262.580,236.370 261.743,235.600 261.153 C 234.830 260.564,233.753 259.948,233.208 259.784 C 232.662 259.621,231.762 259.177,231.208 258.798 C 229.927 257.921,226.166 255.605,224.600 254.728 C 223.940 254.359,221.690 253.120,219.600 251.975 C 217.510 250.829,215.620 249.692,215.400 249.446 C 215.180 249.201,214.190 248.582,213.200 248.070 C 212.210 247.559,210.500 246.622,209.400 245.989 C 208.300 245.355,206.378 244.293,205.129 243.627 C 203.880 242.962,202.751 242.244,202.620 242.033 C 202.489 241.821,201.081 240.999,199.491 240.208 C 197.901 239.416,196.060 238.425,195.400 238.005 C 194.740 237.585,192.940 236.581,191.400 235.773 C 189.860 234.964,187.944 233.785,187.142 233.152 C 186.341 232.518,185.473 232.000,185.214 232.000 C 184.956 232.000,183.452 231.217,181.872 230.259 C 180.292 229.302,178.370 228.200,177.600 227.810 C 176.830 227.420,175.030 226.334,173.600 225.397 C 172.170 224.460,170.156 223.313,169.124 222.848 C 168.093 222.383,167.131 221.812,166.988 221.580 C 166.844 221.348,165.709 220.660,164.464 220.051 C 163.219 219.442,161.210 218.312,160.000 217.541 C 158.790 216.769,156.946 215.731,155.902 215.234 C 154.858 214.737,153.914 214.185,153.804 214.007 C 153.694 213.829,152.896 213.314,152.031 212.863 C 149.367 211.475,148.633 211.028,147.700 210.230 L 146.800 209.461 146.800 147.197 C 146.800 112.952,146.930 84.804,147.088 84.645 C 147.543 84.191,148.909 84.676,151.655 86.268 M375.910 146.600 C 376.029 214.470,376.140 210.036,374.304 210.963 C 372.837 211.705,372.155 212.114,369.693 213.728 C 368.747 214.349,367.214 215.217,366.287 215.657 C 364.201 216.646,361.890 218.024,360.927 218.853 C 360.527 219.197,359.331 219.821,358.269 220.240 C 357.206 220.658,356.165 221.315,355.955 221.700 C 355.744 222.085,355.305 222.400,354.978 222.400 C 354.651 222.400,353.671 222.850,352.800 223.400 C 351.929 223.950,351.099 224.400,350.956 224.400 C 350.813 224.400,349.819 225.030,348.747 225.800 C 347.675 226.570,346.609 227.200,346.378 227.200 C 346.147 227.200,345.295 227.650,344.486 228.200 C 343.677 228.750,342.808 229.200,342.556 229.200 C 342.304 229.200,341.876 229.467,341.605 229.794 C 341.334 230.120,340.277 230.790,339.256 231.282 C 338.235 231.774,336.230 232.914,334.800 233.815 C 333.370 234.715,331.513 235.770,330.674 236.157 C 329.835 236.545,328.368 237.388,327.416 238.031 C 326.463 238.674,325.572 239.200,325.434 239.200 C 325.297 239.200,324.471 239.650,323.600 240.200 C 322.729 240.750,321.753 241.200,321.431 241.200 C 321.109 241.200,320.610 241.515,320.323 241.900 C 320.035 242.285,318.990 243.009,318.000 243.508 C 317.010 244.008,315.542 244.818,314.737 245.308 C 310.866 247.668,308.763 248.800,308.249 248.800 C 307.939 248.800,307.584 249.064,307.460 249.387 C 307.336 249.710,306.642 250.224,305.917 250.528 C 305.193 250.832,302.738 252.188,300.463 253.540 C 298.187 254.893,296.267 256.000,296.194 256.000 C 296.122 256.000,294.654 256.866,292.932 257.924 C 291.209 258.982,289.133 260.156,288.317 260.534 C 287.501 260.912,286.734 261.383,286.613 261.580 C 286.491 261.777,284.926 262.679,283.136 263.584 C 281.345 264.490,279.332 265.621,278.661 266.099 C 277.991 266.576,276.893 267.260,276.221 267.619 C 275.550 267.979,273.931 268.931,272.624 269.736 C 271.316 270.541,270.011 271.200,269.724 271.200 C 269.436 271.200,269.200 271.391,269.200 271.625 C 269.200 271.864,268.630 271.996,267.900 271.925 L 266.600 271.800 266.496 210.000 C 266.384 143.401,266.287 146.443,268.556 145.383 C 269.240 145.063,270.340 144.451,271.000 144.023 C 271.660 143.595,273.366 142.650,274.792 141.923 C 276.217 141.195,277.700 140.318,278.087 139.974 C 278.736 139.397,280.850 138.198,284.431 136.376 C 285.218 135.976,286.095 135.367,286.380 135.024 C 286.665 134.681,287.155 134.400,287.468 134.400 C 287.782 134.400,289.065 133.740,290.319 132.933 C 291.574 132.127,293.770 130.838,295.200 130.071 C 296.630 129.303,298.250 128.372,298.800 128.001 C 299.350 127.631,301.240 126.556,303.000 125.614 C 304.760 124.671,306.650 123.592,307.200 123.215 C 307.750 122.838,308.470 122.409,308.800 122.262 C 309.130 122.114,310.030 121.610,310.800 121.141 C 312.019 120.399,313.345 119.641,316.582 117.836 C 317.012 117.596,318.225 116.815,319.278 116.100 C 320.331 115.385,321.377 114.800,321.604 114.800 C 321.830 114.800,322.729 114.350,323.600 113.800 C 324.471 113.250,325.280 112.800,325.396 112.800 C 325.513 112.800,326.505 112.170,327.600 111.400 C 328.695 110.630,329.786 110.000,330.024 110.000 C 330.261 110.000,331.259 109.447,332.241 108.772 C 333.223 108.096,334.786 107.190,335.713 106.759 C 337.741 105.817,338.557 105.328,340.398 103.953 C 341.169 103.378,342.250 102.769,342.800 102.599 C 343.350 102.430,343.890 102.178,344.000 102.038 C 344.282 101.680,350.721 98.000,351.065 98.000 C 351.221 98.000,351.720 97.662,352.174 97.249 C 352.628 96.836,354.673 95.636,356.717 94.583 C 358.761 93.530,360.520 92.529,360.626 92.358 C 360.732 92.187,361.669 91.632,362.709 91.124 C 363.749 90.616,364.690 90.089,364.800 89.953 C 364.995 89.711,367.272 88.449,371.240 86.384 C 372.314 85.825,373.417 85.143,373.692 84.868 C 373.966 84.594,374.553 84.421,374.995 84.485 C 375.797 84.600,375.800 84.826,375.910 146.600 M149.646 223.145 C 150.171 223.555,151.320 224.279,152.200 224.753 C 153.080 225.228,154.700 226.145,155.800 226.791 C 156.900 227.437,158.880 228.530,160.200 229.221 C 161.520 229.911,162.884 230.729,163.231 231.038 C 163.579 231.347,164.012 231.600,164.194 231.600 C 164.376 231.600,165.114 232.050,165.836 232.600 C 166.557 233.150,167.335 233.600,167.566 233.600 C 167.796 233.600,169.023 234.267,170.292 235.083 C 171.562 235.898,173.500 237.033,174.600 237.604 C 175.700 238.175,177.361 239.128,178.292 239.721 C 179.223 240.314,180.125 240.800,180.297 240.800 C 180.470 240.800,181.508 241.399,182.605 242.131 C 183.702 242.864,185.590 243.980,186.800 244.612 C 188.010 245.244,189.270 245.977,189.600 246.241 C 190.342 246.833,194.028 248.902,196.276 249.988 C 197.197 250.434,198.056 250.967,198.184 251.174 C 198.311 251.380,199.357 252.018,200.508 252.590 C 201.659 253.163,203.590 254.249,204.800 255.005 C 206.010 255.760,207.810 256.780,208.800 257.272 C 209.790 257.763,211.320 258.647,212.200 259.235 C 213.693 260.233,219.653 263.635,222.773 265.269 C 223.528 265.664,224.248 266.147,224.373 266.341 C 224.498 266.535,226.216 267.536,228.190 268.566 C 230.165 269.596,232.055 270.667,232.390 270.946 C 232.929 271.393,236.448 273.435,242.000 276.523 C 242.990 277.074,245.960 278.802,248.600 280.364 C 251.240 281.926,253.985 283.475,254.700 283.807 L 256.000 284.411 256.000 347.163 C 256.000 417.093,256.259 411.284,253.224 409.497 C 252.386 409.004,249.833 407.539,247.550 406.242 C 245.268 404.946,243.115 403.640,242.766 403.340 C 242.417 403.040,240.994 402.244,239.604 401.571 C 238.213 400.897,236.519 399.929,235.838 399.419 C 235.157 398.910,234.183 398.366,233.674 398.211 C 233.164 398.056,231.634 397.173,230.274 396.248 C 228.913 395.323,227.080 394.231,226.200 393.821 C 225.320 393.411,223.880 392.612,223.000 392.046 C 220.564 390.478,219.972 390.138,217.708 389.000 C 216.557 388.422,215.511 387.780,215.384 387.574 C 215.256 387.367,214.307 386.815,213.276 386.346 C 212.244 385.878,210.680 385.003,209.800 384.403 C 208.920 383.802,207.030 382.711,205.600 381.977 C 204.170 381.243,202.896 380.493,202.769 380.310 C 202.642 380.127,201.202 379.300,199.569 378.473 C 197.936 377.647,195.880 376.507,195.000 375.941 C 192.523 374.347,190.799 373.335,188.329 372.023 C 187.080 371.360,185.945 370.634,185.806 370.409 C 185.667 370.184,185.265 370.000,184.914 370.000 C 184.563 370.000,183.681 369.547,182.954 368.992 C 182.228 368.438,180.051 367.160,178.117 366.153 C 176.182 365.145,174.330 364.096,174.000 363.820 C 173.670 363.544,172.590 362.893,171.600 362.372 C 170.610 361.851,169.530 361.217,169.200 360.962 C 168.870 360.708,167.430 359.882,166.000 359.127 C 164.570 358.372,162.680 357.300,161.800 356.745 C 160.920 356.190,158.940 355.053,157.400 354.220 C 155.860 353.386,154.330 352.476,154.000 352.198 C 153.670 351.919,152.481 351.231,151.357 350.668 C 150.233 350.105,148.748 349.168,148.057 348.587 L 146.800 347.529 146.800 285.198 C 146.800 235.707,146.903 222.825,147.300 222.665 C 148.213 222.297,148.683 222.393,149.646 223.145 " stroke="none" fill="#fbfbfb" fill-rule="evenodd"></path><path id="path2" d="M27.900 15.100 C 27.237 15.250,27.200 18.565,27.200 77.824 L 27.200 140.390 28.900 141.485 C 30.947 142.803,31.798 143.282,35.271 145.071 C 36.740 145.828,38.157 146.707,38.420 147.024 C 38.683 147.341,39.032 147.600,39.195 147.600 C 39.359 147.600,41.182 148.582,43.246 149.781 C 45.311 150.981,47.810 152.350,48.800 152.825 C 49.790 153.299,50.960 154.009,51.400 154.403 C 51.840 154.797,52.851 155.453,53.646 155.860 C 57.229 157.693,59.417 158.931,59.614 159.237 C 59.732 159.420,60.669 159.941,61.697 160.396 C 62.726 160.851,63.665 161.382,63.785 161.576 C 63.905 161.771,65.668 162.768,67.702 163.793 C 69.736 164.818,71.591 165.901,71.824 166.200 C 72.057 166.500,73.407 167.304,74.824 167.989 C 76.241 168.673,78.120 169.755,79.000 170.394 C 79.880 171.033,81.403 171.932,82.385 172.393 C 83.367 172.854,84.447 173.477,84.785 173.778 C 85.123 174.080,86.781 175.051,88.468 175.936 C 90.155 176.822,92.225 177.979,93.068 178.509 C 95.170 179.829,100.877 183.058,103.887 184.629 C 105.256 185.343,106.876 186.280,107.487 186.712 C 108.099 187.143,109.410 187.903,110.400 188.401 C 111.390 188.900,112.290 189.443,112.400 189.608 C 112.510 189.774,114.339 190.837,116.465 191.971 C 118.591 193.106,120.548 194.296,120.814 194.617 C 121.080 194.938,121.457 195.200,121.652 195.200 C 121.847 195.200,123.633 196.145,125.621 197.300 C 127.609 198.455,130.082 199.821,131.118 200.336 C 132.153 200.851,133.389 201.632,133.864 202.072 C 135.018 203.140,136.070 202.869,136.466 201.400 C 137.026 199.322,136.847 78.203,136.283 77.530 C 135.617 76.736,133.352 75.180,131.200 74.037 C 130.210 73.511,129.130 72.868,128.800 72.608 C 128.470 72.347,127.570 71.819,126.800 71.434 C 123.992 70.030,122.971 69.439,121.441 68.331 C 120.582 67.709,119.733 67.200,119.554 67.200 C 119.286 67.200,112.588 63.379,110.400 61.978 C 110.070 61.767,109.350 61.374,108.800 61.105 C 108.250 60.836,107.710 60.518,107.600 60.399 C 107.153 59.913,105.199 58.800,104.793 58.800 C 104.553 58.800,103.152 58.022,101.679 57.072 C 98.719 55.162,94.608 52.773,91.454 51.130 C 90.324 50.541,89.135 49.821,88.811 49.531 C 88.487 49.240,86.687 48.218,84.811 47.259 C 82.935 46.300,81.040 45.202,80.600 44.818 C 80.160 44.435,78.946 43.718,77.902 43.226 C 76.858 42.734,75.906 42.171,75.786 41.977 C 75.665 41.782,74.809 41.250,73.883 40.794 C 71.155 39.452,68.319 37.877,66.508 36.700 C 65.577 36.095,64.726 35.600,64.616 35.600 C 64.506 35.600,63.463 35.015,62.298 34.300 C 58.917 32.224,58.708 32.105,56.507 31.000 C 55.356 30.421,53.516 29.330,52.417 28.574 C 51.318 27.818,50.278 27.200,50.104 27.200 C 49.931 27.200,48.854 26.570,47.710 25.800 C 46.567 25.030,45.489 24.400,45.316 24.400 C 45.142 24.400,43.470 23.478,41.600 22.352 C 39.730 21.226,36.850 19.585,35.200 18.705 C 33.550 17.825,31.930 16.878,31.600 16.601 C 30.549 15.717,28.624 14.936,27.900 15.100 M30.400 16.496 C 31.170 16.988,32.907 18.022,34.260 18.795 C 41.725 23.059,45.405 25.189,49.000 27.328 C 51.200 28.637,54.080 30.282,55.400 30.984 C 56.720 31.687,58.561 32.742,59.492 33.331 C 60.423 33.919,61.305 34.400,61.452 34.400 C 61.599 34.400,63.123 35.300,64.838 36.400 C 66.553 37.500,68.059 38.400,68.186 38.400 C 68.312 38.400,69.087 38.820,69.908 39.334 C 70.729 39.848,72.840 41.042,74.600 41.987 C 76.360 42.933,78.343 44.109,79.007 44.603 C 79.671 45.096,81.651 46.233,83.407 47.129 C 85.163 48.026,87.220 49.218,87.978 49.780 C 88.735 50.341,89.528 50.800,89.740 50.800 C 89.951 50.800,90.681 51.223,91.362 51.740 C 92.043 52.258,93.950 53.366,95.600 54.203 C 97.250 55.041,99.173 56.147,99.873 56.662 C 100.573 57.177,101.563 57.784,102.073 58.009 C 102.583 58.235,104.080 59.035,105.400 59.787 C 106.720 60.538,108.520 61.549,109.400 62.031 C 110.280 62.514,111.720 63.386,112.600 63.969 C 113.480 64.552,114.920 65.383,115.800 65.815 C 116.680 66.247,118.574 67.320,120.009 68.200 C 121.444 69.080,122.974 70.017,123.409 70.283 C 123.844 70.549,125.910 71.700,128.000 72.841 C 130.090 73.982,132.743 75.564,133.895 76.358 L 135.991 77.800 135.989 139.400 C 135.988 173.280,135.843 201.229,135.665 201.508 C 135.365 201.981,131.739 200.419,130.118 199.119 C 129.853 198.906,129.043 198.414,128.318 198.025 C 123.886 195.648,122.131 194.652,121.600 194.215 C 121.270 193.943,119.560 192.929,117.800 191.962 C 116.040 190.995,114.240 189.985,113.800 189.717 C 113.360 189.450,112.550 189.007,112.000 188.733 C 111.450 188.459,110.280 187.756,109.400 187.171 C 108.520 186.585,106.720 185.537,105.400 184.842 C 104.080 184.147,102.100 183.039,101.000 182.381 C 99.900 181.722,97.830 180.547,96.400 179.768 C 94.970 178.990,92.683 177.689,91.318 176.877 C 89.952 176.065,87.267 174.519,85.351 173.443 C 83.435 172.366,81.222 171.043,80.433 170.503 C 79.645 169.962,78.640 169.358,78.200 169.161 C 77.760 168.963,77.130 168.627,76.800 168.412 C 75.347 167.469,67.090 162.734,63.902 161.015 C 61.978 159.978,60.309 158.977,60.194 158.790 C 60.079 158.604,59.043 157.985,57.892 157.415 C 54.961 155.963,52.313 154.434,51.569 153.767 C 51.221 153.455,50.753 153.200,50.529 153.200 C 50.304 153.200,49.411 152.686,48.544 152.058 C 47.676 151.430,45.675 150.279,44.095 149.501 C 42.516 148.723,40.463 147.527,39.533 146.843 C 38.603 146.159,37.720 145.600,37.570 145.600 C 36.833 145.600,28.167 140.287,27.930 139.689 C 27.463 138.512,27.546 17.248,28.014 16.374 C 28.536 15.398,28.692 15.406,30.400 16.496 M147.088 84.645 C 146.930 84.804,146.800 112.952,146.800 147.197 L 146.800 209.461 147.700 210.230 C 148.633 211.028,149.367 211.475,152.031 212.863 C 152.896 213.314,153.694 213.829,153.804 214.007 C 153.914 214.185,154.858 214.737,155.902 215.234 C 156.946 215.731,158.790 216.769,160.000 217.541 C 161.210 218.312,163.219 219.442,164.464 220.051 C 165.709 220.660,166.844 221.348,166.988 221.580 C 167.131 221.812,168.093 222.383,169.124 222.848 C 170.156 223.313,172.170 224.460,173.600 225.397 C 175.030 226.334,176.830 227.420,177.600 227.810 C 178.370 228.200,180.292 229.302,181.872 230.259 C 183.452 231.217,184.956 232.000,185.214 232.000 C 185.473 232.000,186.341 232.518,187.142 233.152 C 187.944 233.785,189.860 234.964,191.400 235.773 C 192.940 236.581,194.740 237.585,195.400 238.005 C 196.060 238.425,197.901 239.416,199.491 240.208 C 201.081 240.999,202.489 241.821,202.620 242.033 C 202.751 242.244,203.880 242.962,205.129 243.627 C 206.378 244.293,208.300 245.355,209.400 245.989 C 210.500 246.622,212.210 247.559,213.200 248.070 C 214.190 248.582,215.180 249.201,215.400 249.446 C 215.620 249.692,217.510 250.829,219.600 251.975 C 221.690 253.120,223.940 254.359,224.600 254.728 C 226.166 255.605,229.927 257.921,231.208 258.798 C 231.762 259.177,232.662 259.621,233.208 259.784 C 233.753 259.948,234.830 260.564,235.600 261.153 C 236.370 261.743,237.810 262.580,238.800 263.013 C 239.790 263.446,241.500 264.404,242.600 265.143 C 243.700 265.881,245.622 267.002,246.871 267.634 C 248.120 268.265,249.238 268.938,249.356 269.129 C 249.766 269.792,254.844 272.069,255.420 271.848 C 255.923 271.655,256.000 263.306,256.000 208.840 L 256.000 146.054 255.100 145.780 C 254.605 145.629,253.917 145.258,253.571 144.955 C 253.225 144.652,251.515 143.661,249.771 142.753 C 248.027 141.845,245.698 140.539,244.596 139.851 C 243.494 139.163,242.234 138.376,241.796 138.103 C 240.918 137.555,237.336 135.553,234.455 134.000 C 233.435 133.450,231.880 132.537,231.000 131.971 C 230.120 131.405,229.130 130.821,228.800 130.673 C 228.470 130.525,227.356 129.908,226.324 129.302 C 225.293 128.696,222.593 127.163,220.324 125.896 C 218.056 124.629,215.539 123.189,214.730 122.696 C 211.328 120.622,202.093 115.287,199.452 113.870 C 197.884 113.029,196.330 112.120,196.000 111.850 C 195.670 111.581,194.680 111.009,193.800 110.580 C 192.920 110.151,191.480 109.334,190.600 108.765 C 189.720 108.196,188.010 107.208,186.800 106.568 C 185.590 105.929,183.769 104.820,182.752 104.103 C 181.736 103.386,180.777 102.800,180.621 102.800 C 180.271 102.800,172.238 98.204,170.616 97.075 C 169.964 96.622,167.976 95.503,166.198 94.588 C 164.419 93.673,162.180 92.356,161.222 91.662 C 160.264 90.968,159.147 90.400,158.740 90.400 C 158.333 90.400,158.000 90.227,158.000 90.016 C 158.000 89.804,157.145 89.206,156.100 88.687 C 155.055 88.168,153.055 87.080,151.655 86.268 C 148.909 84.676,147.543 84.191,147.088 84.645 M373.692 84.868 C 373.417 85.143,372.314 85.825,371.240 86.384 C 367.272 88.449,364.995 89.711,364.800 89.953 C 364.690 90.089,363.749 90.616,362.709 91.124 C 361.669 91.632,360.732 92.187,360.626 92.358 C 360.520 92.529,358.761 93.530,356.717 94.583 C 354.673 95.636,352.628 96.836,352.174 97.249 C 351.720 97.662,351.221 98.000,351.065 98.000 C 350.721 98.000,344.282 101.680,344.000 102.038 C 343.890 102.178,343.350 102.430,342.800 102.599 C 342.250 102.769,341.169 103.378,340.398 103.953 C 338.557 105.328,337.741 105.817,335.713 106.759 C 334.786 107.190,333.223 108.096,332.241 108.772 C 331.259 109.447,330.261 110.000,330.024 110.000 C 329.786 110.000,328.695 110.630,327.600 111.400 C 326.505 112.170,325.513 112.800,325.396 112.800 C 325.280 112.800,324.471 113.250,323.600 113.800 C 322.729 114.350,321.830 114.800,321.604 114.800 C 321.377 114.800,320.331 115.385,319.278 116.100 C 318.225 116.815,317.012 117.596,316.582 117.836 C 316.152 118.076,314.900 118.780,313.800 119.401 C 312.700 120.021,311.309 120.782,310.708 121.090 C 309.697 121.609,308.882 122.400,309.359 122.400 C 309.472 122.400,310.481 121.860,311.600 121.200 C 312.719 120.540,313.745 120.000,313.880 120.000 C 314.014 120.000,314.681 119.582,315.362 119.071 C 316.043 118.559,316.901 118.030,317.270 117.895 C 317.638 117.759,318.718 117.150,319.670 116.541 C 320.621 115.933,322.570 114.821,324.000 114.071 C 325.430 113.322,327.320 112.225,328.200 111.635 C 329.080 111.045,330.101 110.447,330.470 110.305 C 330.838 110.164,331.918 109.550,332.870 108.941 C 333.821 108.333,335.770 107.223,337.200 106.476 C 338.630 105.728,340.340 104.717,341.000 104.227 C 341.660 103.738,342.740 103.057,343.400 102.713 C 345.315 101.717,347.277 100.616,349.000 99.571 C 349.880 99.038,351.091 98.331,351.691 98.001 C 352.290 97.670,354.540 96.432,356.691 95.248 C 358.841 94.065,360.870 92.868,361.200 92.588 C 361.530 92.309,363.420 91.225,365.400 90.180 C 367.380 89.135,369.270 88.067,369.600 87.807 C 371.138 86.594,374.931 84.771,375.250 85.090 C 375.451 85.291,375.559 112.137,375.501 147.570 L 375.400 209.697 371.600 212.030 C 369.510 213.313,367.080 214.724,366.200 215.166 C 363.640 216.452,361.190 217.887,360.468 218.522 C 360.101 218.846,358.900 219.513,357.800 220.005 C 356.700 220.497,355.656 221.147,355.480 221.449 C 355.304 221.752,354.903 222.000,354.588 222.000 C 354.273 222.000,353.031 222.630,351.827 223.400 C 350.623 224.170,349.512 224.800,349.357 224.800 C 349.202 224.800,348.519 225.212,347.838 225.715 C 347.157 226.218,345.430 227.238,344.000 227.983 C 342.570 228.727,340.680 229.797,339.800 230.361 C 338.920 230.925,337.366 231.839,336.346 232.393 C 333.860 233.743,329.500 236.227,326.793 237.834 C 325.580 238.555,323.510 239.711,322.193 240.402 C 320.877 241.094,319.530 241.901,319.200 242.195 C 318.870 242.489,316.980 243.580,315.000 244.620 C 313.020 245.660,311.130 246.733,310.800 247.005 C 310.470 247.277,309.660 247.785,309.000 248.134 C 308.340 248.483,308.028 248.775,308.306 248.784 C 308.768 248.799,310.911 247.640,314.737 245.308 C 315.542 244.818,317.010 244.008,318.000 243.508 C 318.990 243.009,320.035 242.285,320.323 241.900 C 320.610 241.515,321.109 241.200,321.431 241.200 C 321.753 241.200,322.729 240.750,323.600 240.200 C 324.471 239.650,325.297 239.200,325.434 239.200 C 325.572 239.200,326.463 238.674,327.416 238.031 C 328.368 237.388,329.835 236.545,330.674 236.157 C 331.513 235.770,333.370 234.715,334.800 233.815 C 336.230 232.914,338.235 231.774,339.256 231.282 C 340.277 230.790,341.334 230.120,341.605 229.794 C 341.876 229.467,342.304 229.200,342.556 229.200 C 342.808 229.200,343.677 228.750,344.486 228.200 C 345.295 227.650,346.147 227.200,346.378 227.200 C 346.609 227.200,347.675 226.570,348.747 225.800 C 349.819 225.030,350.813 224.400,350.956 224.400 C 351.099 224.400,351.929 223.950,352.800 223.400 C 353.671 222.850,354.651 222.400,354.978 222.400 C 355.305 222.400,355.744 222.085,355.955 221.700 C 356.165 221.315,357.206 220.658,358.269 220.240 C 359.331 219.821,360.527 219.197,360.927 218.853 C 361.890 218.024,364.201 216.646,366.287 215.657 C 367.214 215.217,368.747 214.349,369.693 213.728 C 372.155 212.114,372.837 211.705,374.304 210.963 C 376.140 210.036,376.029 214.470,375.910 146.600 C 375.800 84.826,375.797 84.600,374.995 84.485 C 374.553 84.421,373.966 84.594,373.692 84.868 M151.000 86.498 C 151.880 86.935,152.870 87.520,153.200 87.798 C 153.530 88.076,155.096 88.967,156.680 89.780 C 158.265 90.592,160.224 91.784,161.035 92.428 C 161.846 93.073,162.694 93.600,162.918 93.600 C 163.142 93.600,165.174 94.680,167.432 96.000 C 169.690 97.320,171.654 98.400,171.796 98.400 C 171.937 98.400,172.638 98.846,173.353 99.391 C 174.068 99.936,175.859 101.011,177.334 101.780 C 179.667 102.996,182.689 104.744,188.000 107.949 C 188.770 108.414,190.210 109.200,191.200 109.697 C 192.190 110.194,193.540 110.978,194.200 111.439 C 194.860 111.901,196.930 113.126,198.800 114.162 C 200.670 115.198,204.000 117.121,206.200 118.435 C 208.400 119.749,210.596 120.991,211.081 121.195 C 211.565 121.399,212.735 122.064,213.681 122.673 C 214.626 123.282,217.020 124.697,219.000 125.817 C 220.980 126.937,225.660 129.621,229.400 131.781 C 233.140 133.941,237.190 136.245,238.400 136.902 C 239.610 137.559,241.680 138.769,243.000 139.591 C 244.320 140.413,247.380 142.174,249.800 143.504 C 252.220 144.834,254.515 146.209,254.900 146.561 C 255.709 147.300,256.020 270.893,255.214 271.391 C 255.002 271.523,254.147 271.213,253.314 270.703 C 250.538 269.004,250.212 268.820,248.108 267.782 C 246.957 267.214,245.910 266.577,245.780 266.367 C 245.650 266.157,244.625 265.493,243.502 264.892 C 242.379 264.292,240.511 263.260,239.352 262.600 C 238.193 261.940,236.469 260.972,235.522 260.448 C 234.575 259.925,232.540 258.741,231.000 257.818 C 229.460 256.895,227.930 256.016,227.600 255.866 C 227.270 255.715,226.460 255.238,225.800 254.807 C 225.140 254.375,223.880 253.636,223.000 253.163 C 222.120 252.690,219.060 250.913,216.200 249.215 C 213.340 247.517,209.380 245.261,207.400 244.201 C 205.420 243.142,203.530 242.056,203.200 241.789 C 202.870 241.522,201.700 240.811,200.600 240.209 C 198.945 239.304,190.563 234.495,188.400 233.210 C 184.536 230.915,180.588 228.685,178.800 227.789 C 177.590 227.183,176.060 226.282,175.400 225.787 C 174.321 224.978,170.454 222.769,165.272 220.000 C 164.242 219.450,163.256 218.775,163.080 218.500 C 162.904 218.225,162.595 218.000,162.392 218.000 C 162.190 218.000,160.400 217.055,158.415 215.900 C 156.430 214.745,153.949 213.336,152.903 212.770 C 149.406 210.876,147.982 209.915,147.590 209.181 C 147.145 208.351,147.028 85.905,147.471 85.462 C 147.803 85.131,148.892 85.450,151.000 86.498 M307.200 123.165 C 306.650 123.571,304.760 124.674,303.000 125.616 C 301.240 126.557,299.350 127.631,298.800 128.001 C 298.250 128.372,296.630 129.303,295.200 130.071 C 293.770 130.838,291.574 132.127,290.319 132.933 C 289.065 133.740,287.782 134.400,287.468 134.400 C 287.155 134.400,286.665 134.681,286.380 135.024 C 286.095 135.367,285.218 135.976,284.431 136.376 C 280.850 138.198,278.736 139.397,278.087 139.974 C 277.700 140.318,276.217 141.195,274.792 141.923 C 273.366 142.650,271.660 143.595,271.000 144.023 C 270.340 144.451,269.240 145.063,268.556 145.383 C 266.287 146.443,266.384 143.401,266.496 210.000 L 266.600 271.800 267.900 271.925 C 268.615 271.994,269.200 271.879,269.200 271.669 C 269.200 271.459,269.610 271.184,270.112 271.058 C 271.144 270.799,276.817 267.218,276.200 267.215 C 275.980 267.214,275.080 267.654,274.200 268.193 C 273.320 268.732,272.150 269.395,271.600 269.667 C 271.050 269.939,270.099 270.502,269.486 270.918 C 267.033 272.584,267.200 277.083,267.200 209.289 C 267.200 160.329,267.305 147.226,267.700 146.748 C 268.331 145.986,269.245 145.428,274.200 142.783 C 276.400 141.608,278.902 140.141,279.760 139.524 C 280.618 138.906,281.455 138.400,281.620 138.400 C 281.785 138.400,283.063 137.689,284.460 136.820 C 285.857 135.950,287.810 134.841,288.800 134.354 C 289.790 133.866,291.088 133.130,291.684 132.718 C 293.351 131.565,306.765 124.000,307.143 124.000 C 307.326 124.000,307.802 123.640,308.200 123.200 C 309.104 122.201,308.530 122.181,307.200 123.165 M147.300 222.665 C 146.903 222.825,146.800 235.707,146.800 285.198 L 146.800 347.529 148.057 348.587 C 148.748 349.168,150.233 350.105,151.357 350.668 C 152.481 351.231,153.670 351.919,154.000 352.198 C 154.330 352.476,155.860 353.386,157.400 354.220 C 158.940 355.053,160.920 356.190,161.800 356.745 C 162.680 357.300,164.570 358.372,166.000 359.127 C 167.430 359.882,168.870 360.708,169.200 360.962 C 169.530 361.217,170.610 361.851,171.600 362.372 C 172.590 362.893,173.670 363.544,174.000 363.820 C 174.330 364.096,176.182 365.145,178.117 366.153 C 180.051 367.160,182.228 368.438,182.954 368.992 C 183.681 369.547,184.563 370.000,184.914 370.000 C 185.265 370.000,185.667 370.184,185.806 370.409 C 185.945 370.634,187.080 371.360,188.329 372.023 C 190.799 373.335,192.523 374.347,195.000 375.941 C 195.880 376.507,197.936 377.647,199.569 378.473 C 201.202 379.300,202.642 380.127,202.769 380.310 C 202.896 380.493,204.170 381.243,205.600 381.977 C 207.030 382.711,208.920 383.802,209.800 384.403 C 210.680 385.003,212.244 385.878,213.276 386.346 C 214.307 386.815,215.256 387.367,215.384 387.574 C 215.511 387.780,216.557 388.422,217.708 389.000 C 219.972 390.138,220.564 390.478,223.000 392.046 C 223.880 392.612,225.320 393.411,226.200 393.821 C 227.080 394.231,228.913 395.323,230.274 396.248 C 231.634 397.173,233.164 398.056,233.674 398.211 C 234.183 398.366,235.157 398.910,235.838 399.419 C 236.519 399.929,238.213 400.897,239.604 401.571 C 240.994 402.244,242.417 403.040,242.766 403.340 C 243.115 403.640,245.268 404.946,247.550 406.242 C 249.833 407.539,252.386 409.004,253.224 409.497 C 256.259 411.284,256.000 417.093,256.000 347.163 L 256.000 284.411 254.700 283.807 C 253.985 283.475,251.240 281.926,248.600 280.364 C 245.960 278.802,242.990 277.074,242.000 276.523 C 236.448 273.435,232.929 271.393,232.390 270.946 C 232.055 270.667,230.165 269.596,228.190 268.566 C 226.216 267.536,224.498 266.535,224.373 266.341 C 224.248 266.147,223.528 265.664,222.773 265.269 C 219.653 263.635,213.693 260.233,212.200 259.235 C 211.320 258.647,209.790 257.763,208.800 257.272 C 207.810 256.780,206.010 255.760,204.800 255.005 C 203.590 254.249,201.659 253.163,200.508 252.590 C 199.357 252.018,198.311 251.380,198.184 251.174 C 198.056 250.967,197.197 250.434,196.276 249.988 C 194.028 248.902,190.342 246.833,189.600 246.241 C 189.270 245.977,188.010 245.244,186.800 244.612 C 185.590 243.980,183.702 242.864,182.605 242.131 C 181.508 241.399,180.470 240.800,180.297 240.800 C 180.125 240.800,179.223 240.314,178.292 239.721 C 177.361 239.128,175.700 238.175,174.600 237.604 C 173.500 237.033,171.562 235.898,170.292 235.083 C 169.023 234.267,167.796 233.600,167.566 233.600 C 167.335 233.600,166.557 233.150,165.836 232.600 C 165.114 232.050,164.376 231.600,164.194 231.600 C 164.012 231.600,163.579 231.347,163.231 231.038 C 162.884 230.729,161.520 229.911,160.200 229.221 C 158.880 228.530,156.900 227.437,155.800 226.791 C 154.700 226.145,153.080 225.228,152.200 224.753 C 151.320 224.279,150.171 223.555,149.646 223.145 C 148.683 222.393,148.213 222.297,147.300 222.665 M153.600 226.195 C 153.930 226.473,155.370 227.318,156.800 228.073 C 158.230 228.828,160.197 229.953,161.172 230.574 C 162.147 231.194,163.529 231.946,164.245 232.244 C 164.960 232.543,165.665 232.982,165.812 233.219 C 165.958 233.456,166.465 233.816,166.939 234.020 C 167.412 234.223,168.880 235.019,170.200 235.788 C 173.361 237.629,176.093 239.172,178.368 240.400 C 179.386 240.950,180.755 241.779,181.410 242.243 C 182.064 242.706,183.950 243.796,185.600 244.664 C 187.250 245.533,189.379 246.739,190.330 247.346 C 191.282 247.952,192.362 248.564,192.730 248.705 C 193.099 248.847,194.120 249.421,195.000 249.981 C 197.908 251.833,198.192 251.998,199.198 252.428 C 199.747 252.663,200.737 253.261,201.398 253.758 C 202.059 254.254,204.362 255.637,206.517 256.830 C 208.671 258.024,210.921 259.270,211.517 259.601 C 212.112 259.931,213.320 260.641,214.200 261.178 C 215.080 261.715,216.790 262.685,218.000 263.333 C 219.210 263.982,221.100 265.093,222.200 265.803 C 223.956 266.937,227.143 268.755,232.921 271.919 C 233.844 272.425,235.063 273.172,235.628 273.578 C 236.193 273.985,237.903 274.949,239.428 275.720 C 240.953 276.492,242.883 277.591,243.718 278.162 C 244.553 278.733,245.338 279.200,245.464 279.200 C 245.589 279.200,247.479 280.280,249.664 281.600 C 251.849 282.920,253.796 284.000,253.990 284.000 C 255.658 284.000,255.600 281.715,255.600 347.241 C 255.600 415.871,255.814 410.773,253.023 408.644 C 252.270 408.070,251.503 407.600,251.320 407.600 C 251.136 407.600,250.337 407.159,249.544 406.621 C 248.752 406.082,247.630 405.522,247.051 405.377 C 246.473 405.232,246.000 404.966,246.000 404.786 C 246.000 404.606,245.460 404.175,244.800 403.829 C 243.281 403.032,241.919 402.261,239.400 400.769 C 238.300 400.117,236.410 399.039,235.200 398.373 C 233.990 397.707,232.010 396.551,230.800 395.804 C 229.590 395.058,227.700 393.980,226.600 393.409 C 225.500 392.838,223.659 391.793,222.508 391.086 C 220.562 389.890,214.070 386.109,209.408 383.457 C 208.304 382.829,206.230 381.639,204.800 380.812 C 203.370 379.986,201.390 378.860,200.400 378.310 C 199.410 377.760,197.700 376.772,196.600 376.116 C 191.585 373.120,189.611 371.988,187.047 370.633 C 185.533 369.834,183.771 368.806,183.131 368.351 C 182.492 367.896,180.941 366.980,179.684 366.316 C 178.428 365.652,175.510 363.989,173.200 362.622 C 170.890 361.254,167.650 359.372,166.000 358.440 C 163.207 356.862,160.488 355.274,156.600 352.949 C 155.720 352.423,154.010 351.458,152.800 350.805 C 151.590 350.152,149.880 349.110,149.000 348.490 L 147.400 347.361 147.299 285.605 C 147.221 238.314,147.309 223.780,147.672 223.556 C 148.130 223.273,152.373 225.162,153.600 226.195 M304.200 250.863 C 302.440 251.933,300.415 253.023,299.700 253.285 C 298.985 253.546,298.400 253.900,298.400 254.070 C 298.400 254.240,297.843 254.667,297.163 255.019 C 296.482 255.371,296.005 255.739,296.103 255.836 C 296.200 255.933,298.422 254.751,301.040 253.208 C 303.658 251.665,306.003 250.402,306.251 250.402 C 306.731 250.400,307.822 249.271,307.557 249.050 C 307.471 248.977,305.960 249.794,304.200 250.863 M291.000 258.399 C 288.800 259.702,286.460 261.122,285.800 261.554 C 285.140 261.985,283.160 263.089,281.400 264.006 C 278.212 265.667,276.636 266.770,276.971 267.105 C 277.068 267.202,277.744 266.827,278.474 266.273 C 279.203 265.719,281.283 264.517,283.096 263.602 C 284.908 262.686,286.491 261.777,286.613 261.580 C 286.734 261.383,287.501 260.910,288.317 260.529 C 290.119 259.688,295.600 256.407,295.600 256.170 C 295.600 255.763,294.766 256.167,291.000 258.399 " stroke="none" fill="#b3a7e2" fill-rule="evenodd"></path><path id="path3" d="M28.026 16.351 C 27.574 17.197,27.403 134.381,27.849 138.175 C 28.085 140.188,28.230 140.441,29.554 141.149 C 32.696 142.830,37.511 145.597,39.600 146.923 C 40.810 147.691,42.970 148.914,44.400 149.642 C 45.830 150.369,47.702 151.468,48.560 152.082 C 49.418 152.697,50.304 153.200,50.529 153.200 C 50.753 153.200,51.221 153.454,51.569 153.764 C 52.154 154.286,53.295 154.946,58.000 157.481 C 58.990 158.015,60.278 158.755,60.861 159.126 C 61.445 159.497,63.155 160.502,64.661 161.360 C 66.168 162.218,69.337 164.063,71.705 165.460 C 74.073 166.857,76.090 168.000,76.187 168.000 C 76.284 168.000,78.397 169.235,80.882 170.744 C 83.367 172.253,86.300 173.972,87.400 174.563 C 88.500 175.155,90.390 176.252,91.600 177.001 C 92.810 177.750,95.228 179.110,96.974 180.023 C 98.719 180.936,100.879 182.154,101.774 182.730 C 102.668 183.306,104.390 184.302,105.600 184.944 C 106.810 185.586,108.250 186.425,108.800 186.809 C 109.350 187.193,110.790 188.043,112.000 188.699 C 113.210 189.355,114.920 190.306,115.800 190.813 C 116.680 191.319,118.210 192.182,119.200 192.731 C 120.190 193.280,121.270 193.949,121.600 194.218 C 121.930 194.487,123.820 195.565,125.800 196.614 C 127.780 197.663,130.152 199.034,131.072 199.661 C 131.992 200.287,133.005 200.800,133.323 200.800 C 133.642 200.800,134.128 201.072,134.404 201.405 C 136.018 203.350,136.000 204.051,136.000 139.580 L 136.000 78.058 134.597 76.902 C 133.825 76.266,132.520 75.383,131.697 74.940 C 126.505 72.149,124.526 71.023,123.969 70.543 C 123.621 70.245,123.202 70.000,123.036 70.000 C 122.871 70.000,121.805 69.395,120.668 68.655 C 119.531 67.915,117.610 66.796,116.400 66.169 C 115.190 65.541,113.480 64.560,112.600 63.987 C 111.028 62.965,109.374 62.026,103.800 58.990 C 102.260 58.152,100.444 57.046,99.764 56.534 C 99.085 56.022,97.915 55.392,97.164 55.133 C 96.414 54.874,95.350 54.361,94.800 53.994 C 91.733 51.944,88.848 50.225,84.000 47.560 C 81.910 46.412,79.661 45.096,79.003 44.636 C 77.947 43.898,76.325 42.966,67.800 38.199 C 66.700 37.584,65.049 36.568,64.130 35.942 C 63.212 35.316,62.042 34.642,61.530 34.446 C 60.741 34.142,54.692 30.798,52.800 29.620 C 51.849 29.027,44.313 24.650,43.115 23.994 C 42.518 23.667,40.538 22.520,38.715 21.444 C 36.892 20.368,34.680 19.088,33.800 18.600 C 32.920 18.112,31.352 17.235,30.316 16.652 C 28.504 15.633,28.417 15.621,28.026 16.351 M31.114 17.745 C 31.937 18.265,33.509 19.167,34.606 19.749 C 35.703 20.331,36.958 21.031,37.396 21.304 C 41.369 23.780,42.610 24.506,45.400 25.988 C 47.160 26.923,48.870 27.917,49.200 28.197 C 49.530 28.478,50.610 29.112,51.600 29.607 C 52.590 30.102,53.490 30.618,53.600 30.754 C 53.710 30.889,54.430 31.313,55.200 31.695 C 57.633 32.902,63.957 36.554,69.234 39.800 C 69.592 40.020,71.395 40.988,73.242 41.950 C 75.089 42.913,76.690 43.827,76.800 43.980 C 76.910 44.134,77.810 44.691,78.800 45.217 C 79.790 45.744,80.870 46.380,81.200 46.631 C 81.530 46.882,82.970 47.721,84.400 48.495 C 89.794 51.418,91.017 52.118,91.600 52.618 C 91.930 52.901,93.370 53.745,94.800 54.494 C 96.230 55.242,98.300 56.424,99.400 57.120 C 100.500 57.815,101.603 58.388,101.851 58.392 C 102.099 58.397,102.516 58.658,102.778 58.974 C 103.040 59.289,104.367 60.130,105.727 60.842 C 109.105 62.610,109.563 62.869,111.400 64.046 C 113.191 65.194,114.730 66.034,116.795 66.991 C 117.562 67.347,118.554 67.981,119.000 68.400 C 119.445 68.818,120.655 69.535,121.688 69.992 C 122.722 70.449,123.668 70.987,123.792 71.188 C 123.917 71.389,124.869 71.969,125.909 72.476 C 126.949 72.984,127.860 73.535,127.933 73.700 C 128.007 73.865,128.246 74.000,128.466 74.000 C 128.685 74.000,129.795 74.615,130.932 75.367 C 132.069 76.119,133.495 76.958,134.100 77.232 L 135.200 77.728 135.200 139.498 L 135.200 201.268 133.300 200.179 C 132.255 199.580,129.960 198.284,128.200 197.299 C 126.440 196.314,124.226 194.989,123.280 194.354 C 122.334 193.719,121.398 193.200,121.200 193.200 C 121.002 193.200,120.066 192.687,119.120 192.059 C 118.174 191.432,116.230 190.318,114.800 189.583 C 113.370 188.849,111.902 188.000,111.537 187.696 C 111.173 187.392,109.913 186.621,108.737 185.983 C 106.404 184.716,104.092 183.403,101.000 181.588 C 99.900 180.943,98.370 180.124,97.600 179.768 C 96.830 179.412,95.660 178.730,95.000 178.253 C 94.340 177.775,93.260 177.125,92.600 176.809 C 91.940 176.493,91.130 176.025,90.800 175.769 C 90.196 175.299,87.249 173.644,84.098 172.003 C 83.162 171.516,82.290 170.946,82.160 170.736 C 82.031 170.526,80.997 169.909,79.862 169.364 C 78.728 168.819,76.720 167.672,75.400 166.815 C 74.080 165.958,72.756 165.244,72.458 165.228 C 72.159 165.213,71.259 164.694,70.458 164.075 C 69.656 163.456,67.864 162.378,66.475 161.680 C 65.087 160.981,63.017 159.800,61.875 159.055 C 60.734 158.309,59.620 157.632,59.400 157.550 C 59.180 157.467,57.601 156.590,55.892 155.600 C 54.182 154.610,52.274 153.521,51.651 153.180 C 51.028 152.839,49.637 152.002,48.559 151.321 C 47.482 150.639,45.536 149.521,44.236 148.837 C 42.936 148.152,41.676 147.436,41.436 147.246 C 41.196 147.055,39.740 146.222,38.200 145.393 C 36.660 144.565,35.130 143.662,34.800 143.388 C 34.470 143.114,33.210 142.389,32.000 141.778 C 30.790 141.166,29.485 140.398,29.100 140.071 C 28.439 139.509,28.400 136.062,28.400 78.138 C 28.400 9.993,28.136 15.866,31.114 17.745 M147.624 85.955 C 147.059 87.011,147.036 208.146,147.600 209.200 C 147.826 209.622,149.222 210.649,150.703 211.483 C 152.184 212.317,153.699 213.180,154.071 213.400 C 155.969 214.523,160.345 217.019,161.400 217.580 C 162.621 218.229,167.849 221.294,173.118 224.451 C 174.723 225.413,176.791 226.607,177.713 227.105 C 178.634 227.602,180.944 228.907,182.846 230.005 C 184.747 231.102,186.505 232.000,186.752 232.000 C 186.998 232.000,187.200 232.180,187.200 232.400 C 187.200 232.620,187.397 232.800,187.638 232.800 C 187.879 232.800,188.567 233.150,189.167 233.577 C 190.374 234.436,198.687 239.200,198.979 239.200 C 199.081 239.200,201.238 240.460,203.772 242.000 C 206.307 243.540,208.469 244.800,208.578 244.800 C 208.686 244.800,210.986 246.115,213.688 247.723 C 219.864 251.399,226.174 255.021,229.288 256.679 C 230.609 257.382,231.985 258.217,232.345 258.533 C 232.705 258.850,233.957 259.624,235.127 260.254 C 236.297 260.884,238.213 261.940,239.386 262.600 C 240.558 263.260,242.301 264.226,243.258 264.747 C 244.216 265.267,245.270 265.917,245.600 266.190 C 245.930 266.463,247.370 267.289,248.800 268.025 C 250.230 268.761,252.185 269.889,253.145 270.532 C 254.550 271.472,254.959 271.593,255.239 271.150 C 256.094 269.801,255.663 147.263,254.800 146.400 C 254.360 145.960,253.840 145.600,253.644 145.600 C 253.448 145.600,251.612 144.610,249.564 143.400 C 247.516 142.190,245.685 141.200,245.494 141.200 C 245.303 141.200,244.549 140.744,243.818 140.187 C 243.088 139.630,241.075 138.399,239.345 137.453 C 237.615 136.506,233.140 133.963,229.400 131.801 C 225.660 129.640,220.800 126.858,218.600 125.619 C 216.400 124.380,213.883 122.878,213.007 122.283 C 212.131 121.687,211.279 121.200,211.113 121.200 C 210.814 121.200,205.093 117.906,202.400 116.183 C 201.630 115.691,199.380 114.398,197.400 113.311 C 193.198 111.003,183.182 105.237,182.600 104.791 C 182.162 104.455,179.601 103.016,176.602 101.422 C 175.547 100.861,174.485 100.244,174.242 100.051 C 173.334 99.332,163.204 93.600,162.840 93.600 C 162.632 93.600,161.953 93.172,161.331 92.649 C 160.709 92.125,158.940 91.026,157.400 90.205 C 155.860 89.384,153.788 88.201,152.795 87.576 C 149.528 85.518,148.098 85.070,147.624 85.955 M150.369 86.967 C 150.716 87.280,152.530 88.317,154.400 89.273 C 156.270 90.229,158.642 91.593,159.672 92.305 C 160.702 93.017,161.655 93.600,161.791 93.600 C 161.927 93.600,163.865 94.680,166.098 96.000 C 168.330 97.320,170.314 98.400,170.505 98.400 C 170.697 98.400,171.426 98.836,172.127 99.368 C 172.827 99.901,174.660 101.010,176.200 101.834 C 177.740 102.657,179.429 103.662,179.954 104.065 C 180.479 104.469,181.078 104.800,181.286 104.800 C 181.494 104.800,182.595 105.405,183.732 106.144 C 184.869 106.884,187.240 108.254,189.000 109.188 C 190.760 110.123,192.470 111.118,192.800 111.398 C 193.130 111.679,194.378 112.424,195.574 113.054 C 198.760 114.733,200.395 115.669,202.292 116.901 C 203.223 117.506,204.249 118.000,204.572 118.000 C 204.896 118.000,205.305 118.259,205.483 118.576 C 205.660 118.893,207.244 119.902,209.003 120.819 C 210.761 121.735,212.920 122.931,213.800 123.476 C 216.329 125.043,222.906 128.853,223.793 129.266 C 224.633 129.657,225.760 130.311,227.800 131.592 C 228.460 132.006,230.080 132.919,231.400 133.620 C 232.720 134.321,234.070 135.130,234.400 135.419 C 234.730 135.707,236.468 136.720,238.261 137.671 C 240.922 139.082,247.203 142.687,250.000 144.408 C 250.330 144.612,251.230 145.083,252.000 145.455 C 252.770 145.827,253.805 146.494,254.300 146.936 L 255.200 147.739 255.200 208.846 C 255.200 246.486,255.056 270.042,254.825 270.185 C 254.618 270.312,253.403 269.849,252.125 269.154 C 250.846 268.460,249.124 267.538,248.298 267.105 C 247.472 266.672,246.697 266.156,246.575 265.960 C 246.454 265.763,245.420 265.156,244.277 264.609 C 243.135 264.063,241.300 263.071,240.200 262.404 C 239.100 261.738,237.210 260.649,236.000 259.986 C 232.946 258.312,226.209 254.294,225.547 253.753 C 225.246 253.507,224.280 252.981,223.400 252.586 C 222.520 252.190,221.530 251.652,221.200 251.390 C 220.870 251.128,219.430 250.306,218.000 249.565 C 216.570 248.823,214.590 247.658,213.600 246.977 C 212.610 246.296,210.723 245.212,209.407 244.569 C 208.092 243.926,206.138 242.815,205.067 242.100 C 203.996 241.385,202.883 240.800,202.593 240.800 C 202.304 240.800,202.007 240.651,201.933 240.469 C 201.793 240.120,198.125 237.890,194.400 235.887 C 193.190 235.237,190.130 233.488,187.600 232.002 C 180.688 227.942,176.799 225.727,174.800 224.713 C 173.810 224.211,172.938 223.658,172.861 223.484 C 172.785 223.311,171.700 222.681,170.449 222.084 C 169.199 221.488,166.921 220.224,165.388 219.275 C 161.461 216.845,158.392 215.064,154.855 213.160 C 153.175 212.255,151.428 211.174,150.974 210.758 C 150.520 210.341,149.994 210.000,149.806 210.000 C 147.899 210.000,148.000 213.505,148.000 147.538 L 148.000 86.400 148.869 86.400 C 149.346 86.400,150.021 86.655,150.369 86.967 M147.227 284.300 C 147.245 317.685,147.357 345.593,147.478 346.318 C 147.714 347.742,148.723 348.516,154.800 351.935 C 156.450 352.863,158.970 354.330,160.400 355.195 C 161.830 356.060,164.011 357.306,165.248 357.963 C 166.484 358.621,169.584 360.420,172.137 361.962 C 174.690 363.504,177.983 365.404,179.456 366.186 C 180.929 366.967,182.721 368.055,183.440 368.603 C 184.159 369.152,184.868 369.600,185.016 369.600 C 185.164 369.600,186.751 370.436,188.542 371.459 C 190.334 372.481,192.970 373.981,194.400 374.791 C 195.830 375.601,199.372 377.641,202.272 379.323 C 205.171 381.005,208.231 382.765,209.072 383.233 C 209.912 383.702,212.255 385.056,214.278 386.243 C 216.301 387.429,218.084 388.400,218.240 388.400 C 218.396 388.400,219.081 388.824,219.762 389.342 C 220.443 389.861,221.720 390.677,222.600 391.158 C 223.480 391.638,225.280 392.644,226.600 393.393 C 227.920 394.142,229.990 395.310,231.200 395.989 C 232.410 396.667,234.911 398.117,236.759 399.211 C 238.606 400.305,240.249 401.200,240.410 401.200 C 240.571 401.200,240.926 401.470,241.200 401.800 C 241.758 402.473,242.400 402.594,242.400 402.027 C 242.400 401.701,239.699 400.093,235.800 398.097 C 235.140 397.759,234.288 397.214,233.907 396.886 C 233.526 396.558,232.317 395.819,231.219 395.244 C 226.752 392.905,221.605 389.932,221.373 389.556 C 221.236 389.335,220.197 388.711,219.062 388.169 C 217.928 387.628,216.647 386.963,216.215 386.692 C 213.389 384.920,211.980 384.081,210.352 383.200 C 209.336 382.650,207.569 381.660,206.425 381.000 C 199.776 377.164,194.925 374.345,194.400 374.013 C 192.279 372.668,190.221 371.600,189.750 371.600 C 189.447 371.600,189.200 371.453,189.200 371.274 C 189.200 371.095,188.525 370.632,187.700 370.245 C 186.875 369.858,185.570 369.131,184.800 368.629 C 182.860 367.365,176.056 363.474,174.600 362.795 C 173.940 362.488,173.040 361.936,172.600 361.568 C 172.160 361.200,170.720 360.309,169.400 359.588 C 165.350 357.375,159.457 353.947,158.338 353.153 C 157.754 352.739,157.144 352.400,156.982 352.400 C 156.821 352.400,155.811 351.860,154.738 351.200 C 153.666 350.540,152.536 350.000,152.227 350.000 C 151.919 350.000,151.607 349.847,151.533 349.660 C 151.460 349.473,150.634 348.840,149.699 348.254 L 147.997 347.188 148.099 285.900 C 148.213 216.733,147.853 223.168,151.467 225.717 C 152.530 226.467,154.515 227.628,155.878 228.297 C 157.241 228.966,158.861 229.870,159.478 230.306 C 160.095 230.741,161.527 231.564,162.660 232.135 C 163.792 232.706,165.528 233.719,166.518 234.386 C 167.507 235.054,168.419 235.600,168.544 235.600 C 168.728 235.600,172.786 237.913,175.600 239.621 C 175.930 239.822,176.954 240.349,177.876 240.792 C 178.797 241.235,179.655 241.766,179.782 241.971 C 179.994 242.313,185.576 245.499,190.425 248.044 C 191.519 248.619,192.726 249.360,193.107 249.691 C 193.488 250.021,195.329 251.081,197.198 252.046 C 199.067 253.011,200.687 253.899,200.798 254.019 C 201.430 254.706,203.599 255.985,204.524 256.217 C 205.116 256.365,205.600 256.645,205.600 256.838 C 205.600 257.031,206.185 257.474,206.900 257.821 C 208.703 258.697,211.250 260.105,213.500 261.467 C 215.802 262.861,216.852 263.459,219.200 264.712 C 220.190 265.240,221.300 265.941,221.668 266.269 C 222.035 266.597,223.385 267.387,224.668 268.025 C 225.950 268.662,227.270 269.359,227.600 269.573 C 229.521 270.818,235.647 274.406,237.930 275.625 C 239.399 276.408,241.374 277.541,242.319 278.142 C 243.265 278.743,244.435 279.415,244.919 279.634 C 245.852 280.058,246.433 280.400,249.000 282.036 C 249.880 282.597,251.458 283.466,252.507 283.967 C 253.556 284.468,254.591 285.209,254.807 285.613 C 255.289 286.514,255.345 407.553,254.863 408.312 C 254.611 408.709,254.306 408.641,253.506 408.012 C 252.938 407.565,252.209 407.200,251.886 407.200 C 251.563 407.200,251.074 406.930,250.800 406.600 C 250.526 406.270,250.149 406.000,249.963 406.000 C 249.776 406.000,248.253 405.190,246.578 404.200 C 243.458 402.355,241.814 401.803,243.600 403.200 C 244.150 403.630,244.780 403.988,245.000 403.995 C 245.220 404.002,246.532 404.726,247.916 405.604 C 249.300 406.482,250.581 407.200,250.762 407.200 C 250.944 407.200,251.552 407.562,252.114 408.004 C 252.675 408.445,253.690 408.918,254.368 409.054 L 255.600 409.300 255.600 347.279 C 255.600 281.347,255.671 284.000,253.915 284.000 C 253.679 284.000,252.335 283.273,250.928 282.384 C 249.522 281.496,247.972 280.588,247.485 280.367 C 246.401 279.876,245.553 279.377,242.949 277.700 C 241.839 276.985,240.631 276.400,240.265 276.400 C 239.899 276.400,239.600 276.232,239.600 276.027 C 239.600 275.822,239.195 275.527,238.700 275.372 C 238.205 275.217,237.058 274.582,236.151 273.961 C 235.244 273.340,233.714 272.396,232.751 271.864 C 228.684 269.615,223.288 266.509,221.800 265.559 C 220.920 264.998,219.210 264.019,218.000 263.385 C 216.790 262.751,215.345 261.926,214.789 261.552 C 214.232 261.178,212.972 260.427,211.989 259.884 C 206.772 257.002,202.424 254.473,201.007 253.497 C 200.131 252.894,199.282 252.400,199.121 252.400 C 198.960 252.400,197.427 251.568,195.714 250.552 C 194.001 249.536,191.610 248.118,190.400 247.402 C 189.190 246.686,186.940 245.420,185.400 244.588 C 183.860 243.757,182.060 242.700,181.401 242.238 C 180.741 241.777,179.301 240.936,178.201 240.368 C 176.459 239.470,172.892 237.428,163.693 232.062 C 162.432 231.327,160.680 230.313,159.800 229.810 C 158.920 229.308,157.120 228.252,155.800 227.466 C 151.625 224.977,148.849 223.600,148.009 223.600 L 147.195 223.600 147.227 284.300 " stroke="none" fill="#9c88e5" fill-rule="evenodd"></path><path id="path4" d="M372.400 86.128 C 371.190 86.829,369.750 87.693,369.200 88.049 C 368.650 88.405,366.760 89.460,365.000 90.392 C 363.240 91.325,361.530 92.315,361.200 92.592 C 360.870 92.870,358.841 94.065,356.691 95.248 C 354.540 96.432,352.290 97.670,351.691 98.001 C 351.091 98.331,349.880 99.038,349.000 99.571 C 347.277 100.616,345.315 101.717,343.400 102.713 C 342.740 103.057,341.660 103.738,341.000 104.227 C 340.340 104.717,338.630 105.728,337.200 106.476 C 335.770 107.223,333.821 108.333,332.870 108.941 C 331.918 109.550,330.838 110.164,330.470 110.305 C 330.101 110.447,329.080 111.045,328.200 111.635 C 327.320 112.225,325.430 113.322,324.000 114.071 C 322.570 114.821,320.621 115.933,319.670 116.541 C 318.718 117.150,317.638 117.755,317.270 117.885 C 316.901 118.015,316.330 118.346,316.000 118.620 C 315.369 119.145,313.512 120.211,310.348 121.865 C 309.304 122.411,308.237 123.115,307.976 123.429 C 307.715 123.743,307.346 124.000,307.156 124.000 C 306.769 124.000,293.384 131.542,291.684 132.718 C 291.088 133.130,289.790 133.866,288.800 134.354 C 287.810 134.841,285.857 135.950,284.460 136.820 C 283.063 137.689,281.785 138.400,281.620 138.400 C 281.455 138.400,280.618 138.906,279.760 139.524 C 278.902 140.141,276.400 141.608,274.200 142.783 C 269.245 145.428,268.331 145.986,267.700 146.748 C 267.305 147.226,267.200 160.329,267.200 209.289 C 267.200 276.741,267.049 272.504,269.396 270.966 C 270.747 270.080,272.495 269.100,274.916 267.869 C 275.970 267.334,277.140 266.621,277.516 266.285 C 277.892 265.949,279.805 264.831,281.767 263.800 C 283.729 262.768,285.799 261.609,286.367 261.224 C 288.003 260.115,291.953 257.817,295.000 256.202 C 296.540 255.385,297.980 254.509,298.200 254.254 C 298.420 253.999,299.140 253.555,299.800 253.268 C 301.104 252.700,308.781 248.314,310.400 247.211 C 310.950 246.837,313.020 245.676,315.000 244.633 C 318.592 242.740,321.397 240.806,320.556 240.802 C 320.312 240.801,319.412 241.277,318.556 241.860 C 317.186 242.793,315.196 243.962,312.600 245.358 C 312.160 245.595,310.869 246.376,309.732 247.094 C 308.595 247.812,307.551 248.400,307.413 248.400 C 307.275 248.400,305.335 249.480,303.102 250.800 C 300.870 252.120,298.879 253.200,298.679 253.200 C 298.479 253.200,297.796 253.637,297.162 254.171 C 296.527 254.705,294.701 255.803,293.104 256.612 C 291.507 257.421,289.914 258.336,289.565 258.645 C 289.215 258.954,288.000 259.700,286.865 260.304 C 282.590 262.575,277.187 265.669,276.699 266.126 C 276.015 266.767,268.996 270.400,268.441 270.400 C 267.972 270.400,267.768 148.270,268.235 147.053 C 268.364 146.716,269.759 145.774,271.335 144.960 C 272.911 144.145,274.884 143.049,275.719 142.522 C 276.555 141.996,277.635 141.391,278.119 141.177 C 278.604 140.963,279.484 140.476,280.076 140.094 C 281.448 139.209,290.709 133.863,293.600 132.287 C 294.810 131.628,296.084 130.843,296.431 130.544 C 296.779 130.245,297.190 130.000,297.345 130.000 C 297.500 130.000,299.388 128.936,301.541 127.636 C 303.694 126.335,306.073 124.978,306.828 124.620 C 307.582 124.262,310.270 122.715,312.800 121.182 C 315.330 119.649,318.342 117.935,319.492 117.372 C 320.643 116.809,321.690 116.177,321.820 115.968 C 321.949 115.759,322.627 115.325,323.327 115.003 C 324.027 114.681,325.770 113.703,327.200 112.828 C 328.630 111.953,330.430 110.899,331.200 110.485 C 335.724 108.055,338.216 106.599,338.333 106.319 C 338.407 106.143,338.681 106.000,338.942 106.000 C 339.204 106.000,340.404 105.351,341.609 104.557 C 342.814 103.763,344.880 102.559,346.200 101.881 C 347.520 101.202,349.320 100.191,350.200 99.632 C 352.641 98.082,353.347 97.657,354.000 97.342 C 354.330 97.182,355.920 96.275,357.533 95.326 C 359.146 94.377,360.604 93.600,360.773 93.600 C 360.942 93.600,361.812 93.070,362.706 92.422 C 363.600 91.774,365.562 90.624,367.066 89.866 C 368.570 89.108,370.786 87.838,371.991 87.044 C 373.196 86.250,374.411 85.600,374.692 85.600 C 375.104 85.600,375.183 97.513,375.101 147.453 L 375.000 209.305 373.668 210.019 C 372.936 210.412,372.036 210.973,371.668 211.267 C 370.938 211.850,371.041 211.790,365.116 215.055 C 362.852 216.302,360.100 217.904,359.000 218.615 C 357.900 219.325,355.740 220.579,354.200 221.402 C 352.660 222.225,351.130 223.108,350.800 223.366 C 350.470 223.623,349.365 224.234,348.344 224.723 C 347.323 225.212,346.266 225.880,345.995 226.206 C 345.724 226.533,345.350 226.800,345.165 226.800 C 344.980 226.800,343.067 227.823,340.914 229.073 C 338.761 230.322,336.225 231.762,335.279 232.273 C 334.332 232.783,332.895 233.650,332.086 234.200 C 331.276 234.750,330.478 235.200,330.312 235.200 C 329.793 235.200,321.125 240.458,321.320 240.654 C 321.509 240.843,322.867 240.140,326.800 237.821 C 329.639 236.147,333.990 233.672,336.346 232.393 C 337.366 231.839,338.920 230.925,339.800 230.361 C 340.680 229.797,342.570 228.727,344.000 227.983 C 345.430 227.238,347.157 226.218,347.838 225.715 C 348.519 225.212,349.202 224.800,349.357 224.800 C 349.512 224.800,350.623 224.170,351.827 223.400 C 353.031 222.630,354.273 222.000,354.588 222.000 C 354.903 222.000,355.304 221.752,355.480 221.449 C 355.656 221.147,356.700 220.497,357.800 220.005 C 358.900 219.513,360.101 218.846,360.468 218.522 C 361.190 217.887,363.640 216.452,366.200 215.166 C 367.080 214.724,369.510 213.313,371.600 212.030 L 375.400 209.697 375.400 147.382 C 375.400 106.175,375.265 85.031,375.000 84.961 C 374.780 84.903,373.610 85.428,372.400 86.128 " stroke="none" fill="#9c94d4" fill-rule="evenodd"></path></g></svg>